%TF.GenerationSoftware,KiCad,Pcbnew,5.1.9*%
%TF.CreationDate,2021-02-03T17:10:17+02:00*%
%TF.ProjectId,arc40,61726334-302e-46b6-9963-61645f706362,rev?*%
%TF.SameCoordinates,Original*%
%TF.FileFunction,Copper,L1,Top*%
%TF.FilePolarity,Positive*%
%FSLAX46Y46*%
G04 Gerber Fmt 4.6, Leading zero omitted, Abs format (unit mm)*
G04 Created by KiCad (PCBNEW 5.1.9) date 2021-02-03 17:10:17*
%MOMM*%
%LPD*%
G01*
G04 APERTURE LIST*
%TA.AperFunction,ComponentPad*%
%ADD10C,1.752600*%
%TD*%
%TA.AperFunction,ComponentPad*%
%ADD11R,1.752600X1.752600*%
%TD*%
%TA.AperFunction,ComponentPad*%
%ADD12C,2.250000*%
%TD*%
%TA.AperFunction,ComponentPad*%
%ADD13O,1.600000X1.600000*%
%TD*%
%TA.AperFunction,ComponentPad*%
%ADD14R,1.600000X1.600000*%
%TD*%
%TA.AperFunction,Conductor*%
%ADD15C,0.250000*%
%TD*%
G04 APERTURE END LIST*
D10*
%TO.P,U1,24*%
%TO.N,Net-(U1-Pad24)*%
X64680000Y-54080000D03*
%TO.P,U1,12*%
%TO.N,ROW3*%
X49440000Y-82020000D03*
%TO.P,U1,23*%
%TO.N,Net-(U1-Pad23)*%
X64680000Y-56620000D03*
%TO.P,U1,22*%
%TO.N,Net-(U1-Pad22)*%
X64680000Y-59160000D03*
%TO.P,U1,21*%
%TO.N,Net-(U1-Pad21)*%
X64680000Y-61700000D03*
%TO.P,U1,20*%
%TO.N,COL6*%
X64680000Y-64240000D03*
%TO.P,U1,19*%
%TO.N,COL7*%
X64680000Y-66780000D03*
%TO.P,U1,18*%
%TO.N,COL8*%
X64680000Y-69320000D03*
%TO.P,U1,17*%
%TO.N,COL9*%
X64680000Y-71860000D03*
%TO.P,U1,16*%
%TO.N,COL10*%
X64680000Y-74400000D03*
%TO.P,U1,15*%
%TO.N,Net-(U1-Pad15)*%
X64680000Y-76940000D03*
%TO.P,U1,14*%
%TO.N,Net-(U1-Pad14)*%
X64680000Y-79480000D03*
%TO.P,U1,13*%
%TO.N,COL11*%
X64680000Y-82020000D03*
%TO.P,U1,11*%
%TO.N,ROW2*%
X49440000Y-79480000D03*
%TO.P,U1,10*%
%TO.N,ROW1*%
X49440000Y-76940000D03*
%TO.P,U1,9*%
%TO.N,ROW0*%
X49440000Y-74400000D03*
%TO.P,U1,8*%
%TO.N,COL5*%
X49440000Y-71860000D03*
%TO.P,U1,7*%
%TO.N,COL4*%
X49440000Y-69320000D03*
%TO.P,U1,6*%
%TO.N,COL3*%
X49440000Y-66780000D03*
%TO.P,U1,5*%
%TO.N,COL2*%
X49440000Y-64240000D03*
%TO.P,U1,4*%
%TO.N,Net-(U1-Pad4)*%
X49440000Y-61700000D03*
%TO.P,U1,3*%
%TO.N,Net-(U1-Pad3)*%
X49440000Y-59160000D03*
%TO.P,U1,2*%
%TO.N,COL0*%
X49440000Y-56620000D03*
D11*
%TO.P,U1,1*%
%TO.N,COL1*%
X49440000Y-54080000D03*
%TD*%
D12*
%TO.P,MX42,2*%
%TO.N,Net-(D42-Pad2)*%
X276384000Y-111601000D03*
%TO.P,MX42,1*%
%TO.N,COL11*%
X270034000Y-114141000D03*
%TD*%
%TO.P,MX41,2*%
%TO.N,Net-(D41-Pad2)*%
X278765000Y-92551200D03*
%TO.P,MX41,1*%
%TO.N,COL11*%
X272415000Y-95091200D03*
%TD*%
%TO.P,MX40,2*%
%TO.N,Net-(D40-Pad2)*%
X276384000Y-73501200D03*
%TO.P,MX40,1*%
%TO.N,COL11*%
X270034000Y-76041200D03*
%TD*%
%TO.P,MX39,2*%
%TO.N,Net-(D39-Pad2)*%
X274002000Y-54451200D03*
%TO.P,MX39,1*%
%TO.N,COL11*%
X267652000Y-56991200D03*
%TD*%
%TO.P,MX38,2*%
%TO.N,Net-(D38-Pad2)*%
X259715000Y-92551200D03*
%TO.P,MX38,1*%
%TO.N,COL10*%
X253365000Y-95091200D03*
%TD*%
%TO.P,MX37,2*%
%TO.N,Net-(D37-Pad2)*%
X254952000Y-73501200D03*
%TO.P,MX37,1*%
%TO.N,COL10*%
X248602000Y-76041200D03*
%TD*%
%TO.P,MX36,2*%
%TO.N,Net-(D36-Pad2)*%
X250190000Y-54451200D03*
%TO.P,MX36,1*%
%TO.N,COL10*%
X243840000Y-56991200D03*
%TD*%
%TO.P,MX35,2*%
%TO.N,Net-(D35-Pad2)*%
X240665000Y-92551200D03*
%TO.P,MX35,1*%
%TO.N,COL9*%
X234315000Y-95091200D03*
%TD*%
%TO.P,MX34,2*%
%TO.N,Net-(D34-Pad2)*%
X235902000Y-73501200D03*
%TO.P,MX34,1*%
%TO.N,COL9*%
X229552000Y-76041200D03*
%TD*%
%TO.P,MX33,2*%
%TO.N,Net-(D33-Pad2)*%
X231140000Y-54451200D03*
%TO.P,MX33,1*%
%TO.N,COL9*%
X224790000Y-56991200D03*
%TD*%
%TO.P,MX32,2*%
%TO.N,Net-(D32-Pad2)*%
X228759000Y-111601000D03*
%TO.P,MX32,1*%
%TO.N,COL8*%
X222409000Y-114141000D03*
%TD*%
%TO.P,MX31,2*%
%TO.N,Net-(D31-Pad2)*%
X221615000Y-92551200D03*
%TO.P,MX31,1*%
%TO.N,COL8*%
X215265000Y-95091200D03*
%TD*%
%TO.P,MX30,2*%
%TO.N,Net-(D30-Pad2)*%
X216852000Y-73501200D03*
%TO.P,MX30,1*%
%TO.N,COL8*%
X210502000Y-76041200D03*
%TD*%
%TO.P,MX29,2*%
%TO.N,Net-(D29-Pad2)*%
X212090000Y-54451200D03*
%TO.P,MX29,1*%
%TO.N,COL8*%
X205740000Y-56991200D03*
%TD*%
%TO.P,MX28,2*%
%TO.N,Net-(D28-Pad2)*%
X202565000Y-92551200D03*
%TO.P,MX28,1*%
%TO.N,COL7*%
X196215000Y-95091200D03*
%TD*%
%TO.P,MX27,2*%
%TO.N,Net-(D27-Pad2)*%
X197802000Y-73501200D03*
%TO.P,MX27,1*%
%TO.N,COL7*%
X191452000Y-76041200D03*
%TD*%
%TO.P,MX26,2*%
%TO.N,Net-(D26-Pad2)*%
X193040000Y-54451200D03*
%TO.P,MX26,1*%
%TO.N,COL7*%
X186690000Y-56991200D03*
%TD*%
%TO.P,MX25,2*%
%TO.N,Net-(D25-Pad2)*%
X190659000Y-111601000D03*
%TO.P,MX25,1*%
%TO.N,COL6*%
X184309000Y-114141000D03*
%TD*%
%TO.P,MX24,2*%
%TO.N,Net-(D24-Pad2)*%
X183515000Y-92551200D03*
%TO.P,MX24,1*%
%TO.N,COL6*%
X177165000Y-95091200D03*
%TD*%
%TO.P,MX23,2*%
%TO.N,Net-(D23-Pad2)*%
X178752000Y-73501200D03*
%TO.P,MX23,1*%
%TO.N,COL6*%
X172402000Y-76041200D03*
%TD*%
%TO.P,MX22,2*%
%TO.N,Net-(D22-Pad2)*%
X173990000Y-54451200D03*
%TO.P,MX22,1*%
%TO.N,COL6*%
X167640000Y-56991200D03*
%TD*%
%TO.P,MX21,2*%
%TO.N,Net-(D21-Pad2)*%
X164465000Y-92551200D03*
%TO.P,MX21,1*%
%TO.N,COL5*%
X158115000Y-95091200D03*
%TD*%
%TO.P,MX20,2*%
%TO.N,Net-(D20-Pad2)*%
X159702000Y-73501200D03*
%TO.P,MX20,1*%
%TO.N,COL5*%
X153352000Y-76041200D03*
%TD*%
%TO.P,MX19,2*%
%TO.N,Net-(D19-Pad2)*%
X154940000Y-54451200D03*
%TO.P,MX19,1*%
%TO.N,COL5*%
X148590000Y-56991200D03*
%TD*%
%TO.P,MX18,2*%
%TO.N,Net-(D18-Pad2)*%
X143034000Y-111601000D03*
%TO.P,MX18,1*%
%TO.N,COL4*%
X136684000Y-114141000D03*
%TD*%
%TO.P,MX17,2*%
%TO.N,Net-(D17-Pad2)*%
X145415000Y-92551200D03*
%TO.P,MX17,1*%
%TO.N,COL4*%
X139065000Y-95091200D03*
%TD*%
%TO.P,MX16,2*%
%TO.N,Net-(D16-Pad2)*%
X140652000Y-73501200D03*
%TO.P,MX16,1*%
%TO.N,COL4*%
X134302000Y-76041200D03*
%TD*%
%TO.P,MX15,2*%
%TO.N,Net-(D15-Pad2)*%
X135890000Y-54451200D03*
%TO.P,MX15,1*%
%TO.N,COL4*%
X129540000Y-56991200D03*
%TD*%
%TO.P,MX14,2*%
%TO.N,Net-(D14-Pad2)*%
X126365000Y-92551200D03*
%TO.P,MX14,1*%
%TO.N,COL3*%
X120015000Y-95091200D03*
%TD*%
%TO.P,MX13,2*%
%TO.N,Net-(D13-Pad2)*%
X121602000Y-73501200D03*
%TO.P,MX13,1*%
%TO.N,COL3*%
X115252000Y-76041200D03*
%TD*%
%TO.P,MX12,2*%
%TO.N,Net-(D12-Pad2)*%
X116840000Y-54451200D03*
%TO.P,MX12,1*%
%TO.N,COL3*%
X110490000Y-56991200D03*
%TD*%
%TO.P,MX11,2*%
%TO.N,Net-(D11-Pad2)*%
X109696000Y-111601000D03*
%TO.P,MX11,1*%
%TO.N,COL2*%
X103346000Y-114141000D03*
%TD*%
%TO.P,MX10,2*%
%TO.N,Net-(D10-Pad2)*%
X107315000Y-92551200D03*
%TO.P,MX10,1*%
%TO.N,COL2*%
X100965000Y-95091200D03*
%TD*%
%TO.P,MX9,2*%
%TO.N,Net-(D9-Pad2)*%
X102552000Y-73501200D03*
%TO.P,MX9,1*%
%TO.N,COL2*%
X96202000Y-76041200D03*
%TD*%
%TO.P,MX8,2*%
%TO.N,Net-(D8-Pad2)*%
X97790000Y-54451200D03*
%TO.P,MX8,1*%
%TO.N,COL2*%
X91440000Y-56991200D03*
%TD*%
%TO.P,MX7,2*%
%TO.N,Net-(D7-Pad2)*%
X88265000Y-92551200D03*
%TO.P,MX7,1*%
%TO.N,COL1*%
X81915000Y-95091200D03*
%TD*%
%TO.P,MX6,2*%
%TO.N,Net-(D6-Pad2)*%
X83502500Y-73501200D03*
%TO.P,MX6,1*%
%TO.N,COL1*%
X77152500Y-76041200D03*
%TD*%
%TO.P,MX5,2*%
%TO.N,Net-(D5-Pad2)*%
X78740000Y-54451200D03*
%TO.P,MX5,1*%
%TO.N,COL1*%
X72390000Y-56991200D03*
%TD*%
%TO.P,MX4,2*%
%TO.N,Net-(D4-Pad2)*%
X62071200Y-111601000D03*
%TO.P,MX4,1*%
%TO.N,COL0*%
X55721200Y-114141000D03*
%TD*%
%TO.P,MX3,2*%
%TO.N,Net-(D3-Pad2)*%
X64452500Y-92551200D03*
%TO.P,MX3,1*%
%TO.N,COL0*%
X58102500Y-95091200D03*
%TD*%
%TO.P,MX2,2*%
%TO.N,Net-(D2-Pad2)*%
X62071200Y-73501200D03*
%TO.P,MX2,1*%
%TO.N,COL0*%
X55721200Y-76041200D03*
%TD*%
%TO.P,MX1,2*%
%TO.N,Net-(D1-Pad2)*%
X59690000Y-54451200D03*
%TO.P,MX1,1*%
%TO.N,COL0*%
X53340000Y-56991200D03*
%TD*%
D13*
%TO.P,D42,2*%
%TO.N,Net-(D42-Pad2)*%
X283369000Y-113824000D03*
D14*
%TO.P,D42,1*%
%TO.N,ROW3*%
X283369000Y-121444000D03*
%TD*%
D13*
%TO.P,D41,2*%
%TO.N,Net-(D41-Pad2)*%
X284162000Y-93186000D03*
D14*
%TO.P,D41,1*%
%TO.N,ROW2*%
X284162000Y-100806000D03*
%TD*%
D13*
%TO.P,D40,2*%
%TO.N,Net-(D40-Pad2)*%
X281781000Y-74136200D03*
D14*
%TO.P,D40,1*%
%TO.N,ROW1*%
X281781000Y-81756200D03*
%TD*%
D13*
%TO.P,D39,2*%
%TO.N,Net-(D39-Pad2)*%
X280194000Y-54292500D03*
D14*
%TO.P,D39,1*%
%TO.N,ROW0*%
X280194000Y-61912500D03*
%TD*%
D13*
%TO.P,D38,2*%
%TO.N,Net-(D38-Pad2)*%
X265906000Y-93186000D03*
D14*
%TO.P,D38,1*%
%TO.N,ROW2*%
X265906000Y-100806000D03*
%TD*%
D13*
%TO.P,D37,2*%
%TO.N,Net-(D37-Pad2)*%
X261144000Y-74136200D03*
D14*
%TO.P,D37,1*%
%TO.N,ROW1*%
X261144000Y-81756200D03*
%TD*%
D13*
%TO.P,D36,2*%
%TO.N,Net-(D36-Pad2)*%
X256381000Y-54292500D03*
D14*
%TO.P,D36,1*%
%TO.N,ROW0*%
X256381000Y-61912500D03*
%TD*%
D13*
%TO.P,D35,2*%
%TO.N,Net-(D35-Pad2)*%
X246856000Y-93186000D03*
D14*
%TO.P,D35,1*%
%TO.N,ROW2*%
X246856000Y-100806000D03*
%TD*%
D13*
%TO.P,D34,2*%
%TO.N,Net-(D34-Pad2)*%
X242094000Y-74136200D03*
D14*
%TO.P,D34,1*%
%TO.N,ROW1*%
X242094000Y-81756200D03*
%TD*%
D13*
%TO.P,D33,2*%
%TO.N,Net-(D33-Pad2)*%
X237331000Y-54292500D03*
D14*
%TO.P,D33,1*%
%TO.N,ROW0*%
X237331000Y-61912500D03*
%TD*%
D13*
%TO.P,D32,2*%
%TO.N,Net-(D32-Pad2)*%
X234950000Y-113824000D03*
D14*
%TO.P,D32,1*%
%TO.N,ROW3*%
X234950000Y-121444000D03*
%TD*%
D13*
%TO.P,D31,2*%
%TO.N,Net-(D31-Pad2)*%
X227806000Y-93186000D03*
D14*
%TO.P,D31,1*%
%TO.N,ROW2*%
X227806000Y-100806000D03*
%TD*%
D13*
%TO.P,D30,2*%
%TO.N,Net-(D30-Pad2)*%
X223044000Y-74136200D03*
D14*
%TO.P,D30,1*%
%TO.N,ROW1*%
X223044000Y-81756200D03*
%TD*%
D13*
%TO.P,D29,2*%
%TO.N,Net-(D29-Pad2)*%
X218281000Y-54292500D03*
D14*
%TO.P,D29,1*%
%TO.N,ROW0*%
X218281000Y-61912500D03*
%TD*%
D13*
%TO.P,D28,2*%
%TO.N,Net-(D28-Pad2)*%
X208756000Y-93186000D03*
D14*
%TO.P,D28,1*%
%TO.N,ROW2*%
X208756000Y-100806000D03*
%TD*%
D13*
%TO.P,D27,2*%
%TO.N,Net-(D27-Pad2)*%
X203994000Y-74136200D03*
D14*
%TO.P,D27,1*%
%TO.N,ROW1*%
X203994000Y-81756200D03*
%TD*%
D13*
%TO.P,D26,2*%
%TO.N,Net-(D26-Pad2)*%
X199231000Y-54292500D03*
D14*
%TO.P,D26,1*%
%TO.N,ROW0*%
X199231000Y-61912500D03*
%TD*%
D13*
%TO.P,D25,2*%
%TO.N,Net-(D25-Pad2)*%
X206375000Y-113824000D03*
D14*
%TO.P,D25,1*%
%TO.N,ROW3*%
X206375000Y-121444000D03*
%TD*%
D13*
%TO.P,D24,2*%
%TO.N,Net-(D24-Pad2)*%
X189706000Y-93186000D03*
D14*
%TO.P,D24,1*%
%TO.N,ROW2*%
X189706000Y-100806000D03*
%TD*%
D13*
%TO.P,D23,2*%
%TO.N,Net-(D23-Pad2)*%
X184944000Y-74136200D03*
D14*
%TO.P,D23,1*%
%TO.N,ROW1*%
X184944000Y-81756200D03*
%TD*%
D13*
%TO.P,D22,2*%
%TO.N,Net-(D22-Pad2)*%
X180181000Y-54292500D03*
D14*
%TO.P,D22,1*%
%TO.N,ROW0*%
X180181000Y-61912500D03*
%TD*%
D13*
%TO.P,D21,2*%
%TO.N,Net-(D21-Pad2)*%
X170656000Y-93186000D03*
D14*
%TO.P,D21,1*%
%TO.N,ROW2*%
X170656000Y-100806000D03*
%TD*%
D13*
%TO.P,D20,2*%
%TO.N,Net-(D20-Pad2)*%
X165894000Y-74136200D03*
D14*
%TO.P,D20,1*%
%TO.N,ROW1*%
X165894000Y-81756200D03*
%TD*%
D13*
%TO.P,D19,2*%
%TO.N,Net-(D19-Pad2)*%
X161131000Y-54292500D03*
D14*
%TO.P,D19,1*%
%TO.N,ROW0*%
X161131000Y-61912500D03*
%TD*%
D13*
%TO.P,D18,2*%
%TO.N,Net-(D18-Pad2)*%
X158750000Y-113824000D03*
D14*
%TO.P,D18,1*%
%TO.N,ROW3*%
X158750000Y-121444000D03*
%TD*%
D13*
%TO.P,D17,2*%
%TO.N,Net-(D17-Pad2)*%
X151606000Y-93186000D03*
D14*
%TO.P,D17,1*%
%TO.N,ROW2*%
X151606000Y-100806000D03*
%TD*%
D13*
%TO.P,D16,2*%
%TO.N,Net-(D16-Pad2)*%
X146844000Y-74136200D03*
D14*
%TO.P,D16,1*%
%TO.N,ROW1*%
X146844000Y-81756200D03*
%TD*%
D13*
%TO.P,D15,2*%
%TO.N,Net-(D15-Pad2)*%
X142081000Y-54292500D03*
D14*
%TO.P,D15,1*%
%TO.N,ROW0*%
X142081000Y-61912500D03*
%TD*%
D13*
%TO.P,D14,2*%
%TO.N,Net-(D14-Pad2)*%
X132556000Y-93186000D03*
D14*
%TO.P,D14,1*%
%TO.N,ROW2*%
X132556000Y-100806000D03*
%TD*%
D13*
%TO.P,D13,2*%
%TO.N,Net-(D13-Pad2)*%
X127794000Y-74136200D03*
D14*
%TO.P,D13,1*%
%TO.N,ROW1*%
X127794000Y-81756200D03*
%TD*%
D13*
%TO.P,D12,2*%
%TO.N,Net-(D12-Pad2)*%
X123031000Y-54292500D03*
D14*
%TO.P,D12,1*%
%TO.N,ROW0*%
X123031000Y-61912500D03*
%TD*%
D13*
%TO.P,D11,2*%
%TO.N,Net-(D11-Pad2)*%
X116681000Y-113824000D03*
D14*
%TO.P,D11,1*%
%TO.N,ROW3*%
X116681000Y-121444000D03*
%TD*%
D13*
%TO.P,D10,2*%
%TO.N,Net-(D10-Pad2)*%
X113506000Y-93186000D03*
D14*
%TO.P,D10,1*%
%TO.N,ROW2*%
X113506000Y-100806000D03*
%TD*%
D13*
%TO.P,D9,2*%
%TO.N,Net-(D9-Pad2)*%
X108744000Y-74136200D03*
D14*
%TO.P,D9,1*%
%TO.N,ROW1*%
X108744000Y-81756200D03*
%TD*%
D13*
%TO.P,D8,2*%
%TO.N,Net-(D8-Pad2)*%
X103981000Y-54292500D03*
D14*
%TO.P,D8,1*%
%TO.N,ROW0*%
X103981000Y-61912500D03*
%TD*%
D13*
%TO.P,D7,2*%
%TO.N,Net-(D7-Pad2)*%
X94456200Y-93186000D03*
D14*
%TO.P,D7,1*%
%TO.N,ROW2*%
X94456200Y-100806000D03*
%TD*%
D13*
%TO.P,D6,2*%
%TO.N,Net-(D6-Pad2)*%
X89550000Y-74136200D03*
D14*
%TO.P,D6,1*%
%TO.N,ROW1*%
X89550000Y-81756200D03*
%TD*%
D13*
%TO.P,D5,2*%
%TO.N,Net-(D5-Pad2)*%
X84931200Y-54292500D03*
D14*
%TO.P,D5,1*%
%TO.N,ROW0*%
X84931200Y-61912500D03*
%TD*%
D13*
%TO.P,D4,2*%
%TO.N,Net-(D4-Pad2)*%
X71437500Y-113824000D03*
D14*
%TO.P,D4,1*%
%TO.N,ROW3*%
X71437500Y-121444000D03*
%TD*%
D13*
%TO.P,D3,2*%
%TO.N,Net-(D3-Pad2)*%
X64770000Y-106362000D03*
D14*
%TO.P,D3,1*%
%TO.N,ROW2*%
X57150000Y-106362000D03*
%TD*%
D13*
%TO.P,D2,2*%
%TO.N,Net-(D2-Pad2)*%
X71437500Y-102711000D03*
D14*
%TO.P,D2,1*%
%TO.N,ROW1*%
X71437500Y-110331000D03*
%TD*%
D13*
%TO.P,D1,2*%
%TO.N,Net-(D1-Pad2)*%
X74612500Y-102711000D03*
D14*
%TO.P,D1,1*%
%TO.N,ROW0*%
X74612500Y-110331000D03*
%TD*%
D15*
%TO.N,ROW0*%
X256381000Y-61912500D02*
X280194000Y-61912500D01*
X237331000Y-61912500D02*
X256381000Y-61912500D01*
X236768400Y-61912500D02*
X237331000Y-61912500D01*
X236768400Y-61912500D02*
X236205700Y-61912500D01*
X218281000Y-61912500D02*
X236205700Y-61912500D01*
X199231000Y-61912500D02*
X218281000Y-61912500D01*
X198668400Y-61912500D02*
X199231000Y-61912500D01*
X198668400Y-61912500D02*
X198105700Y-61912500D01*
X180181000Y-61912500D02*
X198105700Y-61912500D01*
X161131000Y-61912500D02*
X180181000Y-61912500D01*
X123031000Y-61912500D02*
X142081000Y-61912500D01*
X122468400Y-61912500D02*
X123031000Y-61912500D01*
X122468400Y-61912500D02*
X121905700Y-61912500D01*
X103981000Y-61912500D02*
X121905700Y-61912500D01*
X84931200Y-61912500D02*
X103981000Y-61912500D01*
%TO.N,ROW1*%
X261144000Y-81756200D02*
X281781000Y-81756200D01*
X242094000Y-81756200D02*
X261144000Y-81756200D01*
X223044000Y-81756200D02*
X242094000Y-81756200D01*
X203994000Y-81756200D02*
X223044000Y-81756200D01*
X184944000Y-81756200D02*
X203994000Y-81756200D01*
X165894000Y-81756200D02*
X184944000Y-81756200D01*
X146844000Y-81756200D02*
X165894000Y-81756200D01*
X127794000Y-81756200D02*
X146844000Y-81756200D01*
X108744000Y-81756200D02*
X127794000Y-81756200D01*
X89550000Y-81756200D02*
X108744000Y-81756200D01*
%TO.N,ROW2*%
X61027600Y-103609700D02*
X58275300Y-106362000D01*
X94456200Y-100806000D02*
X63831300Y-100806000D01*
X63831300Y-100806000D02*
X61027600Y-103609700D01*
X61027600Y-103609700D02*
X50778300Y-93360500D01*
X50778300Y-93360500D02*
X50778300Y-80818300D01*
X50778300Y-80818300D02*
X49440000Y-79480000D01*
X227806000Y-100806000D02*
X246856000Y-100806000D01*
X227243400Y-100806000D02*
X227806000Y-100806000D01*
X227243400Y-100806000D02*
X226680700Y-100806000D01*
X57150000Y-106362000D02*
X58275300Y-106362000D01*
X246856000Y-100806000D02*
X265906000Y-100806000D01*
X208756000Y-100806000D02*
X226680700Y-100806000D01*
X189706000Y-100806000D02*
X208756000Y-100806000D01*
X170656000Y-100806000D02*
X189706000Y-100806000D01*
X132556000Y-100806000D02*
X151606000Y-100806000D01*
%TO.N,ROW3*%
X116681000Y-121444000D02*
X71437500Y-121444000D01*
X234950000Y-121444000D02*
X283369000Y-121444000D01*
X206375000Y-121444000D02*
X234950000Y-121444000D01*
X158750000Y-121444000D02*
X206375000Y-121444000D01*
X116681000Y-121444000D02*
X158750000Y-121444000D01*
%TO.N,Net-(D5-Pad2)*%
X84931200Y-54292500D02*
X78898700Y-54292500D01*
X78898700Y-54292500D02*
X78740000Y-54451200D01*
%TO.N,Net-(D6-Pad2)*%
X89550000Y-74136200D02*
X84137500Y-74136200D01*
X84137500Y-74136200D02*
X83502500Y-73501200D01*
%TO.N,Net-(D7-Pad2)*%
X94456200Y-93186000D02*
X88899800Y-93186000D01*
X88899800Y-93186000D02*
X88265000Y-92551200D01*
%TO.N,Net-(D8-Pad2)*%
X103981000Y-54292500D02*
X97948700Y-54292500D01*
X97948700Y-54292500D02*
X97790000Y-54451200D01*
%TO.N,Net-(D9-Pad2)*%
X108744000Y-74136200D02*
X103187000Y-74136200D01*
X103187000Y-74136200D02*
X102552000Y-73501200D01*
%TO.N,Net-(D10-Pad2)*%
X113506000Y-93186000D02*
X107949800Y-93186000D01*
X107949800Y-93186000D02*
X107315000Y-92551200D01*
%TO.N,Net-(D12-Pad2)*%
X123031000Y-54292500D02*
X116998700Y-54292500D01*
X116998700Y-54292500D02*
X116840000Y-54451200D01*
%TO.N,Net-(D13-Pad2)*%
X127794000Y-74136200D02*
X122237000Y-74136200D01*
X122237000Y-74136200D02*
X121602000Y-73501200D01*
%TO.N,Net-(D14-Pad2)*%
X132556000Y-93186000D02*
X126999800Y-93186000D01*
X126999800Y-93186000D02*
X126365000Y-92551200D01*
%TO.N,Net-(D15-Pad2)*%
X142081000Y-54292500D02*
X136048700Y-54292500D01*
X136048700Y-54292500D02*
X135890000Y-54451200D01*
%TO.N,Net-(D16-Pad2)*%
X146844000Y-74136200D02*
X141287000Y-74136200D01*
X141287000Y-74136200D02*
X140652000Y-73501200D01*
%TO.N,Net-(D17-Pad2)*%
X151606000Y-93186000D02*
X146049800Y-93186000D01*
X146049800Y-93186000D02*
X145415000Y-92551200D01*
%TO.N,Net-(D18-Pad2)*%
X158750000Y-113824000D02*
X145257000Y-113824000D01*
X145257000Y-113824000D02*
X143034000Y-111601000D01*
%TO.N,Net-(D19-Pad2)*%
X161131000Y-54292500D02*
X155098700Y-54292500D01*
X155098700Y-54292500D02*
X154940000Y-54451200D01*
%TO.N,Net-(D20-Pad2)*%
X165894000Y-74136200D02*
X160337000Y-74136200D01*
X160337000Y-74136200D02*
X159702000Y-73501200D01*
%TO.N,Net-(D21-Pad2)*%
X170656000Y-93186000D02*
X165099800Y-93186000D01*
X165099800Y-93186000D02*
X164465000Y-92551200D01*
%TO.N,Net-(D22-Pad2)*%
X180181000Y-54292500D02*
X174148700Y-54292500D01*
X174148700Y-54292500D02*
X173990000Y-54451200D01*
%TO.N,Net-(D23-Pad2)*%
X184944000Y-74136200D02*
X179387000Y-74136200D01*
X179387000Y-74136200D02*
X178752000Y-73501200D01*
%TO.N,Net-(D24-Pad2)*%
X189706000Y-93186000D02*
X184149800Y-93186000D01*
X184149800Y-93186000D02*
X183515000Y-92551200D01*
%TO.N,Net-(D25-Pad2)*%
X206375000Y-113824000D02*
X192882000Y-113824000D01*
X192882000Y-113824000D02*
X190659000Y-111601000D01*
%TO.N,Net-(D26-Pad2)*%
X199231000Y-54292500D02*
X193198700Y-54292500D01*
X193198700Y-54292500D02*
X193040000Y-54451200D01*
%TO.N,Net-(D27-Pad2)*%
X203994000Y-74136200D02*
X198437000Y-74136200D01*
X198437000Y-74136200D02*
X197802000Y-73501200D01*
%TO.N,Net-(D28-Pad2)*%
X208756000Y-93186000D02*
X203199800Y-93186000D01*
X203199800Y-93186000D02*
X202565000Y-92551200D01*
%TO.N,Net-(D29-Pad2)*%
X218281000Y-54292500D02*
X212248700Y-54292500D01*
X212248700Y-54292500D02*
X212090000Y-54451200D01*
%TO.N,Net-(D30-Pad2)*%
X223044000Y-74136200D02*
X217487000Y-74136200D01*
X217487000Y-74136200D02*
X216852000Y-73501200D01*
%TO.N,Net-(D31-Pad2)*%
X227806000Y-93186000D02*
X222249800Y-93186000D01*
X222249800Y-93186000D02*
X221615000Y-92551200D01*
%TO.N,Net-(D33-Pad2)*%
X237331000Y-54292500D02*
X231298700Y-54292500D01*
X231298700Y-54292500D02*
X231140000Y-54451200D01*
%TO.N,Net-(D34-Pad2)*%
X242094000Y-74136200D02*
X236537000Y-74136200D01*
X236537000Y-74136200D02*
X235902000Y-73501200D01*
%TO.N,Net-(D35-Pad2)*%
X246856000Y-93186000D02*
X241299800Y-93186000D01*
X241299800Y-93186000D02*
X240665000Y-92551200D01*
%TO.N,Net-(D36-Pad2)*%
X256381000Y-54292500D02*
X250348700Y-54292500D01*
X250348700Y-54292500D02*
X250190000Y-54451200D01*
%TO.N,Net-(D37-Pad2)*%
X261144000Y-74136200D02*
X255587000Y-74136200D01*
X255587000Y-74136200D02*
X254952000Y-73501200D01*
%TO.N,Net-(D38-Pad2)*%
X265906000Y-93186000D02*
X260349800Y-93186000D01*
X260349800Y-93186000D02*
X259715000Y-92551200D01*
%TO.N,Net-(D39-Pad2)*%
X280194000Y-54292500D02*
X274160700Y-54292500D01*
X274160700Y-54292500D02*
X274002000Y-54451200D01*
%TO.N,Net-(D40-Pad2)*%
X281781000Y-74136200D02*
X277019000Y-74136200D01*
X277019000Y-74136200D02*
X276384000Y-73501200D01*
%TO.N,Net-(D41-Pad2)*%
X284162000Y-93186000D02*
X279399800Y-93186000D01*
X279399800Y-93186000D02*
X278765000Y-92551200D01*
%TO.N,COL0*%
X58102500Y-95091200D02*
X55721200Y-92709900D01*
X55721200Y-92709900D02*
X55721200Y-76041200D01*
X53340000Y-56991200D02*
X49811200Y-56991200D01*
X49811200Y-56991200D02*
X49440000Y-56620000D01*
%TO.N,COL2*%
X100965000Y-95091200D02*
X100965000Y-111760000D01*
X100965000Y-111760000D02*
X103346000Y-114141000D01*
X49440000Y-64240000D02*
X50700300Y-62979700D01*
X50700300Y-62979700D02*
X81407700Y-62979700D01*
X81407700Y-62979700D02*
X87396200Y-56991200D01*
X87396200Y-56991200D02*
X91440000Y-56991200D01*
%TO.N,COL3*%
X110490000Y-56991200D02*
X97790000Y-56991200D01*
X97790000Y-56991200D02*
X96339600Y-55540800D01*
X96339600Y-55540800D02*
X88209700Y-55540800D01*
X88209700Y-55540800D02*
X87308200Y-56442300D01*
X87308200Y-56442300D02*
X75557000Y-56442300D01*
X75557000Y-56442300D02*
X73528200Y-58471100D01*
X73528200Y-58471100D02*
X71818800Y-58471100D01*
X71818800Y-58471100D02*
X71237700Y-57890000D01*
X71237700Y-57890000D02*
X59066000Y-57890000D01*
X59066000Y-57890000D02*
X58343900Y-57167900D01*
X58343900Y-57167900D02*
X55781400Y-57167900D01*
X55781400Y-57167900D02*
X54478200Y-58471100D01*
X54478200Y-58471100D02*
X52768800Y-58471100D01*
X52768800Y-58471100D02*
X52600300Y-58302600D01*
X52600300Y-58302600D02*
X51572900Y-58302600D01*
X51572900Y-58302600D02*
X50654100Y-59221400D01*
X50654100Y-59221400D02*
X50654100Y-59649000D01*
X50654100Y-59649000D02*
X49873100Y-60430000D01*
X49873100Y-60430000D02*
X48923300Y-60430000D01*
X48923300Y-60430000D02*
X48204400Y-61148900D01*
X48204400Y-61148900D02*
X48204400Y-65544400D01*
X48204400Y-65544400D02*
X49440000Y-66780000D01*
%TO.N,COL4*%
X134302000Y-76041200D02*
X117473700Y-76041200D01*
X117473700Y-76041200D02*
X115974800Y-74542300D01*
X115974800Y-74542300D02*
X113235500Y-74542300D01*
X113235500Y-74542300D02*
X112466600Y-75311200D01*
X112466600Y-75311200D02*
X99550100Y-75311200D01*
X99550100Y-75311200D02*
X97369700Y-77491600D01*
X97369700Y-77491600D02*
X95570700Y-77491600D01*
X95570700Y-77491600D02*
X95412700Y-77333600D01*
X95412700Y-77333600D02*
X91027600Y-77333600D01*
X91027600Y-77333600D02*
X87460100Y-80901100D01*
X87460100Y-80901100D02*
X80002400Y-80901100D01*
X80002400Y-80901100D02*
X79851300Y-80750000D01*
X79851300Y-80750000D02*
X64195500Y-80750000D01*
X64195500Y-80750000D02*
X62862500Y-79417000D01*
X62862500Y-79417000D02*
X62862500Y-78632400D01*
X62862500Y-78632400D02*
X57360100Y-73130000D01*
X57360100Y-73130000D02*
X49000000Y-73130000D01*
X49000000Y-73130000D02*
X48214000Y-72344000D01*
X48214000Y-72344000D02*
X48214000Y-70546000D01*
X48214000Y-70546000D02*
X49440000Y-69320000D01*
%TO.N,COL5*%
X153352000Y-76041200D02*
X149361600Y-72050800D01*
X149361600Y-72050800D02*
X68982000Y-72050800D01*
X68982000Y-72050800D02*
X65430300Y-75602500D01*
X65430300Y-75602500D02*
X61632500Y-75602500D01*
X61632500Y-75602500D02*
X57890000Y-71860000D01*
X57890000Y-71860000D02*
X49440000Y-71860000D01*
%TO.N,COL6*%
X167640000Y-56991200D02*
X162959200Y-56991200D01*
X162959200Y-56991200D02*
X155710400Y-64240000D01*
X155710400Y-64240000D02*
X64680000Y-64240000D01*
%TO.N,COL7*%
X186690000Y-56991200D02*
X170686000Y-56991200D01*
X170686000Y-56991200D02*
X166931600Y-60745600D01*
X166931600Y-60745600D02*
X160159900Y-60745600D01*
X160159900Y-60745600D02*
X154125500Y-66780000D01*
X154125500Y-66780000D02*
X64680000Y-66780000D01*
%TO.N,COL8*%
X64680000Y-69320000D02*
X203780800Y-69320000D01*
X203780800Y-69320000D02*
X210502000Y-76041200D01*
%TO.N,COL9*%
X229552000Y-76041200D02*
X213120100Y-76041200D01*
X213120100Y-76041200D02*
X211640200Y-77521100D01*
X211640200Y-77521100D02*
X209930800Y-77521100D01*
X209930800Y-77521100D02*
X203516900Y-71107200D01*
X203516900Y-71107200D02*
X65432800Y-71107200D01*
X65432800Y-71107200D02*
X64680000Y-71860000D01*
%TO.N,COL10*%
X64680000Y-74400000D02*
X67499100Y-71580900D01*
X67499100Y-71580900D02*
X170203600Y-71580900D01*
X170203600Y-71580900D02*
X174884600Y-76261900D01*
X174884600Y-76261900D02*
X182651200Y-76261900D01*
X182651200Y-76261900D02*
X187302600Y-80913300D01*
X187302600Y-80913300D02*
X199621600Y-80913300D01*
X199621600Y-80913300D02*
X199938500Y-80596400D01*
X199938500Y-80596400D02*
X206722000Y-80596400D01*
X206722000Y-80596400D02*
X207026100Y-80900500D01*
X207026100Y-80900500D02*
X221619900Y-80900500D01*
X221619900Y-80900500D02*
X221901500Y-80618900D01*
X221901500Y-80618900D02*
X225794500Y-80618900D01*
X225794500Y-80618900D02*
X226076100Y-80900500D01*
X226076100Y-80900500D02*
X237802200Y-80900500D01*
X237802200Y-80900500D02*
X238921100Y-79781600D01*
X238921100Y-79781600D02*
X242768800Y-79781600D01*
X242768800Y-79781600D02*
X246509200Y-76041200D01*
X246509200Y-76041200D02*
X248602000Y-76041200D01*
%TO.N,COL11*%
X270034000Y-114141000D02*
X272415000Y-111760000D01*
X272415000Y-111760000D02*
X272415000Y-95091200D01*
X272415000Y-95091200D02*
X268266400Y-90942600D01*
X268266400Y-90942600D02*
X73602600Y-90942600D01*
X73602600Y-90942600D02*
X64680000Y-82020000D01*
%TD*%
M02*
