%TF.GenerationSoftware,KiCad,Pcbnew,5.1.9*%
%TF.CreationDate,2021-02-13T13:16:34+02:00*%
%TF.ProjectId,arc40,61726334-302e-46b6-9963-61645f706362,rev?*%
%TF.SameCoordinates,Original*%
%TF.FileFunction,Legend,Bot*%
%TF.FilePolarity,Positive*%
%FSLAX46Y46*%
G04 Gerber Fmt 4.6, Leading zero omitted, Abs format (unit mm)*
G04 Created by KiCad (PCBNEW 5.1.9) date 2021-02-13 13:16:34*
%MOMM*%
%LPD*%
G01*
G04 APERTURE LIST*
%ADD10C,0.381000*%
%ADD11C,0.150000*%
%ADD12C,2.250000*%
%ADD13C,3.987800*%
%ADD14C,1.750000*%
%ADD15C,1.752600*%
%ADD16R,1.752600X1.752600*%
%ADD17C,3.048000*%
%ADD18O,1.600000X1.600000*%
%ADD19R,1.600000X1.600000*%
G04 APERTURE END LIST*
D10*
%TO.C,U1*%
X50710000Y-52810000D02*
X48170000Y-52810000D01*
X65950000Y-50270000D02*
X48170000Y-50270000D01*
X48170000Y-50270000D02*
X48170000Y-83290000D01*
X48170000Y-83290000D02*
X65950000Y-83290000D01*
X65950000Y-83290000D02*
X65950000Y-50270000D01*
D11*
G36*
X62904635Y-58699030D02*
G01*
X62904635Y-58799030D01*
X63404635Y-58799030D01*
X63404635Y-58699030D01*
X62904635Y-58699030D01*
G37*
X62904635Y-58699030D02*
X62904635Y-58799030D01*
X63404635Y-58799030D01*
X63404635Y-58699030D01*
X62904635Y-58699030D01*
G36*
X62904635Y-58699030D02*
G01*
X62904635Y-58999030D01*
X63004635Y-58999030D01*
X63004635Y-58699030D01*
X62904635Y-58699030D01*
G37*
X62904635Y-58699030D02*
X62904635Y-58999030D01*
X63004635Y-58999030D01*
X63004635Y-58699030D01*
X62904635Y-58699030D01*
G36*
X62904635Y-59299030D02*
G01*
X62904635Y-59499030D01*
X63004635Y-59499030D01*
X63004635Y-59299030D01*
X62904635Y-59299030D01*
G37*
X62904635Y-59299030D02*
X62904635Y-59499030D01*
X63004635Y-59499030D01*
X63004635Y-59299030D01*
X62904635Y-59299030D01*
G36*
X63304635Y-58699030D02*
G01*
X63304635Y-59499030D01*
X63404635Y-59499030D01*
X63404635Y-58699030D01*
X63304635Y-58699030D01*
G37*
X63304635Y-58699030D02*
X63304635Y-59499030D01*
X63404635Y-59499030D01*
X63404635Y-58699030D01*
X63304635Y-58699030D01*
G36*
X63104635Y-59099030D02*
G01*
X63104635Y-59199030D01*
X63204635Y-59199030D01*
X63204635Y-59099030D01*
X63104635Y-59099030D01*
G37*
X63104635Y-59099030D02*
X63104635Y-59199030D01*
X63204635Y-59199030D01*
X63204635Y-59099030D01*
X63104635Y-59099030D01*
D10*
X50710000Y-52810000D02*
X50710000Y-55350000D01*
X50710000Y-55350000D02*
X48170000Y-55350000D01*
D11*
X62633333Y-59463809D02*
X62519047Y-59501904D01*
X62328571Y-59501904D01*
X62252380Y-59463809D01*
X62214285Y-59425714D01*
X62176190Y-59349523D01*
X62176190Y-59273333D01*
X62214285Y-59197142D01*
X62252380Y-59159047D01*
X62328571Y-59120952D01*
X62480952Y-59082857D01*
X62557142Y-59044761D01*
X62595238Y-59006666D01*
X62633333Y-58930476D01*
X62633333Y-58854285D01*
X62595238Y-58778095D01*
X62557142Y-58740000D01*
X62480952Y-58701904D01*
X62290476Y-58701904D01*
X62176190Y-58740000D01*
X61947619Y-58701904D02*
X61490476Y-58701904D01*
X61719047Y-59501904D02*
X61719047Y-58701904D01*
X55678604Y-53641904D02*
X55221461Y-53641904D01*
X55450032Y-54441904D02*
X55450032Y-53641904D01*
X55030985Y-53641904D02*
X54497651Y-54441904D01*
X54497651Y-53641904D02*
X55030985Y-54441904D01*
X54040508Y-53641904D02*
X53964318Y-53641904D01*
X53888128Y-53680000D01*
X53850032Y-53718095D01*
X53811937Y-53794285D01*
X53773842Y-53946666D01*
X53773842Y-54137142D01*
X53811937Y-54289523D01*
X53850032Y-54365714D01*
X53888128Y-54403809D01*
X53964318Y-54441904D01*
X54040508Y-54441904D01*
X54116699Y-54403809D01*
X54154794Y-54365714D01*
X54192889Y-54289523D01*
X54230985Y-54137142D01*
X54230985Y-53946666D01*
X54192889Y-53794285D01*
X54154794Y-53718095D01*
X54116699Y-53680000D01*
X54040508Y-53641904D01*
X52859556Y-53603809D02*
X53545270Y-54632380D01*
X52592889Y-54441904D02*
X52592889Y-53641904D01*
X52402413Y-53641904D01*
X52288128Y-53680000D01*
X52211937Y-53756190D01*
X52173842Y-53832380D01*
X52135747Y-53984761D01*
X52135747Y-54099047D01*
X52173842Y-54251428D01*
X52211937Y-54327619D01*
X52288128Y-54403809D01*
X52402413Y-54441904D01*
X52592889Y-54441904D01*
X51869080Y-53641904D02*
X51373842Y-53641904D01*
X51640508Y-53946666D01*
X51526223Y-53946666D01*
X51450032Y-53984761D01*
X51411937Y-54022857D01*
X51373842Y-54099047D01*
X51373842Y-54289523D01*
X51411937Y-54365714D01*
X51450032Y-54403809D01*
X51526223Y-54441904D01*
X51754794Y-54441904D01*
X51830985Y-54403809D01*
X51869080Y-54365714D01*
X62844809Y-79422857D02*
X62730523Y-79460952D01*
X62692428Y-79499047D01*
X62654333Y-79575238D01*
X62654333Y-79689523D01*
X62692428Y-79765714D01*
X62730523Y-79803809D01*
X62806714Y-79841904D01*
X63111476Y-79841904D01*
X63111476Y-79041904D01*
X62844809Y-79041904D01*
X62768619Y-79080000D01*
X62730523Y-79118095D01*
X62692428Y-79194285D01*
X62692428Y-79270476D01*
X62730523Y-79346666D01*
X62768619Y-79384761D01*
X62844809Y-79422857D01*
X63111476Y-79422857D01*
X62349571Y-79118095D02*
X62311476Y-79080000D01*
X62235285Y-79041904D01*
X62044809Y-79041904D01*
X61968619Y-79080000D01*
X61930523Y-79118095D01*
X61892428Y-79194285D01*
X61892428Y-79270476D01*
X61930523Y-79384761D01*
X62387666Y-79841904D01*
X61892428Y-79841904D01*
X62787666Y-71802857D02*
X63054333Y-71802857D01*
X63054333Y-72221904D02*
X63054333Y-71421904D01*
X62673380Y-71421904D01*
X62444809Y-71421904D02*
X61911476Y-71421904D01*
X62254333Y-72221904D01*
X62787666Y-69262857D02*
X63054333Y-69262857D01*
X63054333Y-69681904D02*
X63054333Y-68881904D01*
X62673380Y-68881904D01*
X62025761Y-68881904D02*
X62178142Y-68881904D01*
X62254333Y-68920000D01*
X62292428Y-68958095D01*
X62368619Y-69072380D01*
X62406714Y-69224761D01*
X62406714Y-69529523D01*
X62368619Y-69605714D01*
X62330523Y-69643809D01*
X62254333Y-69681904D01*
X62101952Y-69681904D01*
X62025761Y-69643809D01*
X61987666Y-69605714D01*
X61949571Y-69529523D01*
X61949571Y-69339047D01*
X61987666Y-69262857D01*
X62025761Y-69224761D01*
X62101952Y-69186666D01*
X62254333Y-69186666D01*
X62330523Y-69224761D01*
X62368619Y-69262857D01*
X62406714Y-69339047D01*
X62787666Y-66722857D02*
X63054333Y-66722857D01*
X63054333Y-67141904D02*
X63054333Y-66341904D01*
X62673380Y-66341904D01*
X61987666Y-66341904D02*
X62368619Y-66341904D01*
X62406714Y-66722857D01*
X62368619Y-66684761D01*
X62292428Y-66646666D01*
X62101952Y-66646666D01*
X62025761Y-66684761D01*
X61987666Y-66722857D01*
X61949571Y-66799047D01*
X61949571Y-66989523D01*
X61987666Y-67065714D01*
X62025761Y-67103809D01*
X62101952Y-67141904D01*
X62292428Y-67141904D01*
X62368619Y-67103809D01*
X62406714Y-67065714D01*
X63073380Y-54441904D02*
X63340047Y-54060952D01*
X63530523Y-54441904D02*
X63530523Y-53641904D01*
X63225761Y-53641904D01*
X63149571Y-53680000D01*
X63111476Y-53718095D01*
X63073380Y-53794285D01*
X63073380Y-53908571D01*
X63111476Y-53984761D01*
X63149571Y-54022857D01*
X63225761Y-54060952D01*
X63530523Y-54060952D01*
X62768619Y-54213333D02*
X62387666Y-54213333D01*
X62844809Y-54441904D02*
X62578142Y-53641904D01*
X62311476Y-54441904D01*
X62121000Y-53641904D02*
X61930523Y-54441904D01*
X61778142Y-53870476D01*
X61625761Y-54441904D01*
X61435285Y-53641904D01*
X63130523Y-56220000D02*
X63206714Y-56181904D01*
X63321000Y-56181904D01*
X63435285Y-56220000D01*
X63511476Y-56296190D01*
X63549571Y-56372380D01*
X63587666Y-56524761D01*
X63587666Y-56639047D01*
X63549571Y-56791428D01*
X63511476Y-56867619D01*
X63435285Y-56943809D01*
X63321000Y-56981904D01*
X63244809Y-56981904D01*
X63130523Y-56943809D01*
X63092428Y-56905714D01*
X63092428Y-56639047D01*
X63244809Y-56639047D01*
X62749571Y-56981904D02*
X62749571Y-56181904D01*
X62292428Y-56981904D01*
X62292428Y-56181904D01*
X61911476Y-56981904D02*
X61911476Y-56181904D01*
X61721000Y-56181904D01*
X61606714Y-56220000D01*
X61530523Y-56296190D01*
X61492428Y-56372380D01*
X61454333Y-56524761D01*
X61454333Y-56639047D01*
X61492428Y-56791428D01*
X61530523Y-56867619D01*
X61606714Y-56943809D01*
X61721000Y-56981904D01*
X61911476Y-56981904D01*
X63587666Y-61261904D02*
X63321000Y-62061904D01*
X63054333Y-61261904D01*
X62330523Y-61985714D02*
X62368619Y-62023809D01*
X62482904Y-62061904D01*
X62559095Y-62061904D01*
X62673380Y-62023809D01*
X62749571Y-61947619D01*
X62787666Y-61871428D01*
X62825761Y-61719047D01*
X62825761Y-61604761D01*
X62787666Y-61452380D01*
X62749571Y-61376190D01*
X62673380Y-61300000D01*
X62559095Y-61261904D01*
X62482904Y-61261904D01*
X62368619Y-61300000D01*
X62330523Y-61338095D01*
X61530523Y-61985714D02*
X61568619Y-62023809D01*
X61682904Y-62061904D01*
X61759095Y-62061904D01*
X61873380Y-62023809D01*
X61949571Y-61947619D01*
X61987666Y-61871428D01*
X62025761Y-61719047D01*
X62025761Y-61604761D01*
X61987666Y-61452380D01*
X61949571Y-61376190D01*
X61873380Y-61300000D01*
X61759095Y-61261904D01*
X61682904Y-61261904D01*
X61568619Y-61300000D01*
X61530523Y-61338095D01*
X62787666Y-64182857D02*
X63054333Y-64182857D01*
X63054333Y-64601904D02*
X63054333Y-63801904D01*
X62673380Y-63801904D01*
X62025761Y-64068571D02*
X62025761Y-64601904D01*
X62216238Y-63763809D02*
X62406714Y-64335238D01*
X61911476Y-64335238D01*
X62844809Y-74342857D02*
X62730523Y-74380952D01*
X62692428Y-74419047D01*
X62654333Y-74495238D01*
X62654333Y-74609523D01*
X62692428Y-74685714D01*
X62730523Y-74723809D01*
X62806714Y-74761904D01*
X63111476Y-74761904D01*
X63111476Y-73961904D01*
X62844809Y-73961904D01*
X62768619Y-74000000D01*
X62730523Y-74038095D01*
X62692428Y-74114285D01*
X62692428Y-74190476D01*
X62730523Y-74266666D01*
X62768619Y-74304761D01*
X62844809Y-74342857D01*
X63111476Y-74342857D01*
X61892428Y-74761904D02*
X62349571Y-74761904D01*
X62121000Y-74761904D02*
X62121000Y-73961904D01*
X62197190Y-74076190D01*
X62273380Y-74152380D01*
X62349571Y-74190476D01*
X62844809Y-76882857D02*
X62730523Y-76920952D01*
X62692428Y-76959047D01*
X62654333Y-77035238D01*
X62654333Y-77149523D01*
X62692428Y-77225714D01*
X62730523Y-77263809D01*
X62806714Y-77301904D01*
X63111476Y-77301904D01*
X63111476Y-76501904D01*
X62844809Y-76501904D01*
X62768619Y-76540000D01*
X62730523Y-76578095D01*
X62692428Y-76654285D01*
X62692428Y-76730476D01*
X62730523Y-76806666D01*
X62768619Y-76844761D01*
X62844809Y-76882857D01*
X63111476Y-76882857D01*
X62387666Y-76501904D02*
X61892428Y-76501904D01*
X62159095Y-76806666D01*
X62044809Y-76806666D01*
X61968619Y-76844761D01*
X61930523Y-76882857D01*
X61892428Y-76959047D01*
X61892428Y-77149523D01*
X61930523Y-77225714D01*
X61968619Y-77263809D01*
X62044809Y-77301904D01*
X62273380Y-77301904D01*
X62349571Y-77263809D01*
X62387666Y-77225714D01*
X62844809Y-81962857D02*
X62730523Y-82000952D01*
X62692428Y-82039047D01*
X62654333Y-82115238D01*
X62654333Y-82229523D01*
X62692428Y-82305714D01*
X62730523Y-82343809D01*
X62806714Y-82381904D01*
X63111476Y-82381904D01*
X63111476Y-81581904D01*
X62844809Y-81581904D01*
X62768619Y-81620000D01*
X62730523Y-81658095D01*
X62692428Y-81734285D01*
X62692428Y-81810476D01*
X62730523Y-81886666D01*
X62768619Y-81924761D01*
X62844809Y-81962857D01*
X63111476Y-81962857D01*
X61968619Y-81581904D02*
X62121000Y-81581904D01*
X62197190Y-81620000D01*
X62235285Y-81658095D01*
X62311476Y-81772380D01*
X62349571Y-81924761D01*
X62349571Y-82229523D01*
X62311476Y-82305714D01*
X62273380Y-82343809D01*
X62197190Y-82381904D01*
X62044809Y-82381904D01*
X61968619Y-82343809D01*
X61930523Y-82305714D01*
X61892428Y-82229523D01*
X61892428Y-82039047D01*
X61930523Y-81962857D01*
X61968619Y-81924761D01*
X62044809Y-81886666D01*
X62197190Y-81886666D01*
X62273380Y-81924761D01*
X62311476Y-81962857D01*
X62349571Y-82039047D01*
X51922809Y-81962857D02*
X51808523Y-82000952D01*
X51770428Y-82039047D01*
X51732333Y-82115238D01*
X51732333Y-82229523D01*
X51770428Y-82305714D01*
X51808523Y-82343809D01*
X51884714Y-82381904D01*
X52189476Y-82381904D01*
X52189476Y-81581904D01*
X51922809Y-81581904D01*
X51846619Y-81620000D01*
X51808523Y-81658095D01*
X51770428Y-81734285D01*
X51770428Y-81810476D01*
X51808523Y-81886666D01*
X51846619Y-81924761D01*
X51922809Y-81962857D01*
X52189476Y-81962857D01*
X51008523Y-81581904D02*
X51389476Y-81581904D01*
X51427571Y-81962857D01*
X51389476Y-81924761D01*
X51313285Y-81886666D01*
X51122809Y-81886666D01*
X51046619Y-81924761D01*
X51008523Y-81962857D01*
X50970428Y-82039047D01*
X50970428Y-82229523D01*
X51008523Y-82305714D01*
X51046619Y-82343809D01*
X51122809Y-82381904D01*
X51313285Y-82381904D01*
X51389476Y-82343809D01*
X51427571Y-82305714D01*
X51922809Y-79422857D02*
X51808523Y-79460952D01*
X51770428Y-79499047D01*
X51732333Y-79575238D01*
X51732333Y-79689523D01*
X51770428Y-79765714D01*
X51808523Y-79803809D01*
X51884714Y-79841904D01*
X52189476Y-79841904D01*
X52189476Y-79041904D01*
X51922809Y-79041904D01*
X51846619Y-79080000D01*
X51808523Y-79118095D01*
X51770428Y-79194285D01*
X51770428Y-79270476D01*
X51808523Y-79346666D01*
X51846619Y-79384761D01*
X51922809Y-79422857D01*
X52189476Y-79422857D01*
X51046619Y-79308571D02*
X51046619Y-79841904D01*
X51237095Y-79003809D02*
X51427571Y-79575238D01*
X50932333Y-79575238D01*
X52151380Y-76882857D02*
X51884714Y-76882857D01*
X51770428Y-77301904D02*
X52151380Y-77301904D01*
X52151380Y-76501904D01*
X51770428Y-76501904D01*
X51084714Y-76501904D02*
X51237095Y-76501904D01*
X51313285Y-76540000D01*
X51351380Y-76578095D01*
X51427571Y-76692380D01*
X51465666Y-76844761D01*
X51465666Y-77149523D01*
X51427571Y-77225714D01*
X51389476Y-77263809D01*
X51313285Y-77301904D01*
X51160904Y-77301904D01*
X51084714Y-77263809D01*
X51046619Y-77225714D01*
X51008523Y-77149523D01*
X51008523Y-76959047D01*
X51046619Y-76882857D01*
X51084714Y-76844761D01*
X51160904Y-76806666D01*
X51313285Y-76806666D01*
X51389476Y-76844761D01*
X51427571Y-76882857D01*
X51465666Y-76959047D01*
X52189476Y-74761904D02*
X52189476Y-73961904D01*
X51999000Y-73961904D01*
X51884714Y-74000000D01*
X51808523Y-74076190D01*
X51770428Y-74152380D01*
X51732333Y-74304761D01*
X51732333Y-74419047D01*
X51770428Y-74571428D01*
X51808523Y-74647619D01*
X51884714Y-74723809D01*
X51999000Y-74761904D01*
X52189476Y-74761904D01*
X51465666Y-73961904D02*
X50932333Y-73961904D01*
X51275190Y-74761904D01*
X51732333Y-72145714D02*
X51770428Y-72183809D01*
X51884714Y-72221904D01*
X51960904Y-72221904D01*
X52075190Y-72183809D01*
X52151380Y-72107619D01*
X52189476Y-72031428D01*
X52227571Y-71879047D01*
X52227571Y-71764761D01*
X52189476Y-71612380D01*
X52151380Y-71536190D01*
X52075190Y-71460000D01*
X51960904Y-71421904D01*
X51884714Y-71421904D01*
X51770428Y-71460000D01*
X51732333Y-71498095D01*
X51046619Y-71421904D02*
X51199000Y-71421904D01*
X51275190Y-71460000D01*
X51313285Y-71498095D01*
X51389476Y-71612380D01*
X51427571Y-71764761D01*
X51427571Y-72069523D01*
X51389476Y-72145714D01*
X51351380Y-72183809D01*
X51275190Y-72221904D01*
X51122809Y-72221904D01*
X51046619Y-72183809D01*
X51008523Y-72145714D01*
X50970428Y-72069523D01*
X50970428Y-71879047D01*
X51008523Y-71802857D01*
X51046619Y-71764761D01*
X51122809Y-71726666D01*
X51275190Y-71726666D01*
X51351380Y-71764761D01*
X51389476Y-71802857D01*
X51427571Y-71879047D01*
X52189476Y-69681904D02*
X52189476Y-68881904D01*
X51999000Y-68881904D01*
X51884714Y-68920000D01*
X51808523Y-68996190D01*
X51770428Y-69072380D01*
X51732333Y-69224761D01*
X51732333Y-69339047D01*
X51770428Y-69491428D01*
X51808523Y-69567619D01*
X51884714Y-69643809D01*
X51999000Y-69681904D01*
X52189476Y-69681904D01*
X51046619Y-69148571D02*
X51046619Y-69681904D01*
X51237095Y-68843809D02*
X51427571Y-69415238D01*
X50932333Y-69415238D01*
X52208523Y-58760000D02*
X52284714Y-58721904D01*
X52399000Y-58721904D01*
X52513285Y-58760000D01*
X52589476Y-58836190D01*
X52627571Y-58912380D01*
X52665666Y-59064761D01*
X52665666Y-59179047D01*
X52627571Y-59331428D01*
X52589476Y-59407619D01*
X52513285Y-59483809D01*
X52399000Y-59521904D01*
X52322809Y-59521904D01*
X52208523Y-59483809D01*
X52170428Y-59445714D01*
X52170428Y-59179047D01*
X52322809Y-59179047D01*
X51827571Y-59521904D02*
X51827571Y-58721904D01*
X51370428Y-59521904D01*
X51370428Y-58721904D01*
X50989476Y-59521904D02*
X50989476Y-58721904D01*
X50799000Y-58721904D01*
X50684714Y-58760000D01*
X50608523Y-58836190D01*
X50570428Y-58912380D01*
X50532333Y-59064761D01*
X50532333Y-59179047D01*
X50570428Y-59331428D01*
X50608523Y-59407619D01*
X50684714Y-59483809D01*
X50799000Y-59521904D01*
X50989476Y-59521904D01*
X52208523Y-61300000D02*
X52284714Y-61261904D01*
X52399000Y-61261904D01*
X52513285Y-61300000D01*
X52589476Y-61376190D01*
X52627571Y-61452380D01*
X52665666Y-61604761D01*
X52665666Y-61719047D01*
X52627571Y-61871428D01*
X52589476Y-61947619D01*
X52513285Y-62023809D01*
X52399000Y-62061904D01*
X52322809Y-62061904D01*
X52208523Y-62023809D01*
X52170428Y-61985714D01*
X52170428Y-61719047D01*
X52322809Y-61719047D01*
X51827571Y-62061904D02*
X51827571Y-61261904D01*
X51370428Y-62061904D01*
X51370428Y-61261904D01*
X50989476Y-62061904D02*
X50989476Y-61261904D01*
X50799000Y-61261904D01*
X50684714Y-61300000D01*
X50608523Y-61376190D01*
X50570428Y-61452380D01*
X50532333Y-61604761D01*
X50532333Y-61719047D01*
X50570428Y-61871428D01*
X50608523Y-61947619D01*
X50684714Y-62023809D01*
X50799000Y-62061904D01*
X50989476Y-62061904D01*
X52189476Y-64601904D02*
X52189476Y-63801904D01*
X51999000Y-63801904D01*
X51884714Y-63840000D01*
X51808523Y-63916190D01*
X51770428Y-63992380D01*
X51732333Y-64144761D01*
X51732333Y-64259047D01*
X51770428Y-64411428D01*
X51808523Y-64487619D01*
X51884714Y-64563809D01*
X51999000Y-64601904D01*
X52189476Y-64601904D01*
X50970428Y-64601904D02*
X51427571Y-64601904D01*
X51199000Y-64601904D02*
X51199000Y-63801904D01*
X51275190Y-63916190D01*
X51351380Y-63992380D01*
X51427571Y-64030476D01*
X52189476Y-67141904D02*
X52189476Y-66341904D01*
X51999000Y-66341904D01*
X51884714Y-66380000D01*
X51808523Y-66456190D01*
X51770428Y-66532380D01*
X51732333Y-66684761D01*
X51732333Y-66799047D01*
X51770428Y-66951428D01*
X51808523Y-67027619D01*
X51884714Y-67103809D01*
X51999000Y-67141904D01*
X52189476Y-67141904D01*
X51237095Y-66341904D02*
X51160904Y-66341904D01*
X51084714Y-66380000D01*
X51046619Y-66418095D01*
X51008523Y-66494285D01*
X50970428Y-66646666D01*
X50970428Y-66837142D01*
X51008523Y-66989523D01*
X51046619Y-67065714D01*
X51084714Y-67103809D01*
X51160904Y-67141904D01*
X51237095Y-67141904D01*
X51313285Y-67103809D01*
X51351380Y-67065714D01*
X51389476Y-66989523D01*
X51427571Y-66837142D01*
X51427571Y-66646666D01*
X51389476Y-66494285D01*
X51351380Y-66418095D01*
X51313285Y-66380000D01*
X51237095Y-66341904D01*
X52189476Y-56981904D02*
X52189476Y-56181904D01*
X51999000Y-56181904D01*
X51884714Y-56220000D01*
X51808523Y-56296190D01*
X51770428Y-56372380D01*
X51732333Y-56524761D01*
X51732333Y-56639047D01*
X51770428Y-56791428D01*
X51808523Y-56867619D01*
X51884714Y-56943809D01*
X51999000Y-56981904D01*
X52189476Y-56981904D01*
X51427571Y-56258095D02*
X51389476Y-56220000D01*
X51313285Y-56181904D01*
X51122809Y-56181904D01*
X51046619Y-56220000D01*
X51008523Y-56258095D01*
X50970428Y-56334285D01*
X50970428Y-56410476D01*
X51008523Y-56524761D01*
X51465666Y-56981904D01*
X50970428Y-56981904D01*
%TD*%
%LPC*%
D12*
%TO.C,MX39*%
X274002000Y-54451200D03*
D13*
X271462000Y-59531200D03*
D12*
X267652000Y-56991200D03*
D14*
X266382000Y-59531200D03*
X276542000Y-59531200D03*
%TD*%
D15*
%TO.C,U1*%
X64680000Y-54080000D03*
X49440000Y-82020000D03*
X64680000Y-56620000D03*
X64680000Y-59160000D03*
X64680000Y-61700000D03*
X64680000Y-64240000D03*
X64680000Y-66780000D03*
X64680000Y-69320000D03*
X64680000Y-71860000D03*
X64680000Y-74400000D03*
X64680000Y-76940000D03*
X64680000Y-79480000D03*
X64680000Y-82020000D03*
X49440000Y-79480000D03*
X49440000Y-76940000D03*
X49440000Y-74400000D03*
X49440000Y-71860000D03*
X49440000Y-69320000D03*
X49440000Y-66780000D03*
X49440000Y-64240000D03*
X49440000Y-61700000D03*
X49440000Y-59160000D03*
X49440000Y-56620000D03*
D16*
X49440000Y-54080000D03*
%TD*%
D12*
%TO.C,MX42*%
X276384000Y-111601000D03*
D13*
X273844000Y-116681000D03*
D12*
X270034000Y-114141000D03*
D14*
X268764000Y-116681000D03*
X278924000Y-116681000D03*
%TD*%
D12*
%TO.C,MX41*%
X278765000Y-92551200D03*
D13*
X276225000Y-97631200D03*
D12*
X272415000Y-95091200D03*
D14*
X271145000Y-97631200D03*
X281305000Y-97631200D03*
%TD*%
D12*
%TO.C,MX40*%
X276384000Y-73501200D03*
D13*
X273844000Y-78581200D03*
D12*
X270034000Y-76041200D03*
D14*
X268764000Y-78581200D03*
X278924000Y-78581200D03*
%TD*%
D12*
%TO.C,MX38*%
X259715000Y-92551200D03*
D13*
X257175000Y-97631200D03*
D12*
X253365000Y-95091200D03*
D14*
X252095000Y-97631200D03*
X262255000Y-97631200D03*
%TD*%
D12*
%TO.C,MX37*%
X254952000Y-73501200D03*
D13*
X252412000Y-78581200D03*
D12*
X248602000Y-76041200D03*
D14*
X247332000Y-78581200D03*
X257492000Y-78581200D03*
%TD*%
D12*
%TO.C,MX36*%
X250190000Y-54451200D03*
D13*
X247650000Y-59531200D03*
D12*
X243840000Y-56991200D03*
D14*
X242570000Y-59531200D03*
X252730000Y-59531200D03*
%TD*%
D12*
%TO.C,MX35*%
X240665000Y-92551200D03*
D13*
X238125000Y-97631200D03*
D12*
X234315000Y-95091200D03*
D14*
X233045000Y-97631200D03*
X243205000Y-97631200D03*
%TD*%
D12*
%TO.C,MX34*%
X235902000Y-73501200D03*
D13*
X233362000Y-78581200D03*
D12*
X229552000Y-76041200D03*
D14*
X228282000Y-78581200D03*
X238442000Y-78581200D03*
%TD*%
D12*
%TO.C,MX33*%
X231140000Y-54451200D03*
D13*
X228600000Y-59531200D03*
D12*
X224790000Y-56991200D03*
D14*
X223520000Y-59531200D03*
X233680000Y-59531200D03*
%TD*%
D12*
%TO.C,MX32*%
X228759000Y-111601000D03*
D13*
X226219000Y-116681000D03*
D12*
X222409000Y-114141000D03*
D14*
X221139000Y-116681000D03*
X231299000Y-116681000D03*
%TD*%
D12*
%TO.C,MX31*%
X221615000Y-92551200D03*
D13*
X219075000Y-97631200D03*
D12*
X215265000Y-95091200D03*
D14*
X213995000Y-97631200D03*
X224155000Y-97631200D03*
%TD*%
D12*
%TO.C,MX30*%
X216852000Y-73501200D03*
D13*
X214312000Y-78581200D03*
D12*
X210502000Y-76041200D03*
D14*
X209232000Y-78581200D03*
X219392000Y-78581200D03*
%TD*%
D12*
%TO.C,MX29*%
X212090000Y-54451200D03*
D13*
X209550000Y-59531200D03*
D12*
X205740000Y-56991200D03*
D14*
X204470000Y-59531200D03*
X214630000Y-59531200D03*
%TD*%
D12*
%TO.C,MX28*%
X202565000Y-92551200D03*
D13*
X200025000Y-97631200D03*
D12*
X196215000Y-95091200D03*
D14*
X194945000Y-97631200D03*
X205105000Y-97631200D03*
%TD*%
D12*
%TO.C,MX27*%
X197802000Y-73501200D03*
D13*
X195262000Y-78581200D03*
D12*
X191452000Y-76041200D03*
D14*
X190182000Y-78581200D03*
X200342000Y-78581200D03*
%TD*%
D12*
%TO.C,MX26*%
X193040000Y-54451200D03*
D13*
X190500000Y-59531200D03*
D12*
X186690000Y-56991200D03*
D14*
X185420000Y-59531200D03*
X195580000Y-59531200D03*
%TD*%
D12*
%TO.C,MX25*%
X190659000Y-111601000D03*
D13*
X188119000Y-116681000D03*
D12*
X184309000Y-114141000D03*
D14*
X183039000Y-116681000D03*
X193199000Y-116681000D03*
D17*
X176212750Y-123666000D03*
X200025250Y-123666000D03*
D13*
X176212750Y-108426000D03*
X200025250Y-108426000D03*
%TD*%
D12*
%TO.C,MX24*%
X183515000Y-92551200D03*
D13*
X180975000Y-97631200D03*
D12*
X177165000Y-95091200D03*
D14*
X175895000Y-97631200D03*
X186055000Y-97631200D03*
%TD*%
D12*
%TO.C,MX23*%
X178752000Y-73501200D03*
D13*
X176212000Y-78581200D03*
D12*
X172402000Y-76041200D03*
D14*
X171132000Y-78581200D03*
X181292000Y-78581200D03*
%TD*%
D12*
%TO.C,MX22*%
X173990000Y-54451200D03*
D13*
X171450000Y-59531200D03*
D12*
X167640000Y-56991200D03*
D14*
X166370000Y-59531200D03*
X176530000Y-59531200D03*
%TD*%
D12*
%TO.C,MX21*%
X164465000Y-92551200D03*
D13*
X161925000Y-97631200D03*
D12*
X158115000Y-95091200D03*
D14*
X156845000Y-97631200D03*
X167005000Y-97631200D03*
%TD*%
D12*
%TO.C,MX20*%
X159702000Y-73501200D03*
D13*
X157162000Y-78581200D03*
D12*
X153352000Y-76041200D03*
D14*
X152082000Y-78581200D03*
X162242000Y-78581200D03*
%TD*%
D12*
%TO.C,MX19*%
X154940000Y-54451200D03*
D13*
X152400000Y-59531200D03*
D12*
X148590000Y-56991200D03*
D14*
X147320000Y-59531200D03*
X157480000Y-59531200D03*
%TD*%
D12*
%TO.C,MX18*%
X143034000Y-111601000D03*
D13*
X140494000Y-116681000D03*
D12*
X136684000Y-114141000D03*
D14*
X135414000Y-116681000D03*
X145574000Y-116681000D03*
D17*
X128587750Y-123666000D03*
X152400250Y-123666000D03*
D13*
X128587750Y-108426000D03*
X152400250Y-108426000D03*
%TD*%
D12*
%TO.C,MX17*%
X145415000Y-92551200D03*
D13*
X142875000Y-97631200D03*
D12*
X139065000Y-95091200D03*
D14*
X137795000Y-97631200D03*
X147955000Y-97631200D03*
%TD*%
D12*
%TO.C,MX16*%
X140652000Y-73501200D03*
D13*
X138112000Y-78581200D03*
D12*
X134302000Y-76041200D03*
D14*
X133032000Y-78581200D03*
X143192000Y-78581200D03*
%TD*%
D12*
%TO.C,MX15*%
X135890000Y-54451200D03*
D13*
X133350000Y-59531200D03*
D12*
X129540000Y-56991200D03*
D14*
X128270000Y-59531200D03*
X138430000Y-59531200D03*
%TD*%
D12*
%TO.C,MX14*%
X126365000Y-92551200D03*
D13*
X123825000Y-97631200D03*
D12*
X120015000Y-95091200D03*
D14*
X118745000Y-97631200D03*
X128905000Y-97631200D03*
%TD*%
D12*
%TO.C,MX13*%
X121602000Y-73501200D03*
D13*
X119062000Y-78581200D03*
D12*
X115252000Y-76041200D03*
D14*
X113982000Y-78581200D03*
X124142000Y-78581200D03*
%TD*%
D12*
%TO.C,MX12*%
X116840000Y-54451200D03*
D13*
X114300000Y-59531200D03*
D12*
X110490000Y-56991200D03*
D14*
X109220000Y-59531200D03*
X119380000Y-59531200D03*
%TD*%
D12*
%TO.C,MX11*%
X109696000Y-111601000D03*
D13*
X107156000Y-116681000D03*
D12*
X103346000Y-114141000D03*
D14*
X102076000Y-116681000D03*
X112236000Y-116681000D03*
%TD*%
D12*
%TO.C,MX10*%
X107315000Y-92551200D03*
D13*
X104775000Y-97631200D03*
D12*
X100965000Y-95091200D03*
D14*
X99695000Y-97631200D03*
X109855000Y-97631200D03*
%TD*%
D12*
%TO.C,MX9*%
X102552000Y-73501200D03*
D13*
X100012000Y-78581200D03*
D12*
X96202000Y-76041200D03*
D14*
X94932000Y-78581200D03*
X105092000Y-78581200D03*
%TD*%
D12*
%TO.C,MX8*%
X97790000Y-54451200D03*
D13*
X95250000Y-59531200D03*
D12*
X91440000Y-56991200D03*
D14*
X90170000Y-59531200D03*
X100330000Y-59531200D03*
%TD*%
D12*
%TO.C,MX7*%
X88265000Y-92551200D03*
D13*
X85725000Y-97631200D03*
D12*
X81915000Y-95091200D03*
D14*
X80645000Y-97631200D03*
X90805000Y-97631200D03*
%TD*%
D12*
%TO.C,MX6*%
X83502500Y-73501200D03*
D13*
X80962500Y-78581200D03*
D12*
X77152500Y-76041200D03*
D14*
X75882500Y-78581200D03*
X86042500Y-78581200D03*
%TD*%
D12*
%TO.C,MX5*%
X78740000Y-54451200D03*
D13*
X76200000Y-59531200D03*
D12*
X72390000Y-56991200D03*
D14*
X71120000Y-59531200D03*
X81280000Y-59531200D03*
%TD*%
D12*
%TO.C,MX4*%
X62071200Y-111601000D03*
D13*
X59531200Y-116681000D03*
D12*
X55721200Y-114141000D03*
D14*
X54451200Y-116681000D03*
X64611200Y-116681000D03*
%TD*%
D12*
%TO.C,MX3*%
X64452500Y-92551200D03*
D13*
X61912500Y-97631200D03*
D12*
X58102500Y-95091200D03*
D14*
X56832500Y-97631200D03*
X66992500Y-97631200D03*
%TD*%
D12*
%TO.C,MX2*%
X62071200Y-73501200D03*
D13*
X59531200Y-78581200D03*
D12*
X55721200Y-76041200D03*
D14*
X54451200Y-78581200D03*
X64611200Y-78581200D03*
%TD*%
D12*
%TO.C,MX1*%
X59690000Y-54451200D03*
D13*
X57150000Y-59531200D03*
D12*
X53340000Y-56991200D03*
D14*
X52070000Y-59531200D03*
X62230000Y-59531200D03*
%TD*%
D18*
%TO.C,D42*%
X283369000Y-113824000D03*
D19*
X283369000Y-121444000D03*
%TD*%
D18*
%TO.C,D41*%
X284162000Y-93186000D03*
D19*
X284162000Y-100806000D03*
%TD*%
D18*
%TO.C,D40*%
X281781000Y-74136200D03*
D19*
X281781000Y-81756200D03*
%TD*%
D18*
%TO.C,D39*%
X280194000Y-54292500D03*
D19*
X280194000Y-61912500D03*
%TD*%
D18*
%TO.C,D38*%
X265906000Y-93186000D03*
D19*
X265906000Y-100806000D03*
%TD*%
D18*
%TO.C,D37*%
X261144000Y-74136200D03*
D19*
X261144000Y-81756200D03*
%TD*%
D18*
%TO.C,D36*%
X256381000Y-54292500D03*
D19*
X256381000Y-61912500D03*
%TD*%
D18*
%TO.C,D35*%
X246856000Y-93186000D03*
D19*
X246856000Y-100806000D03*
%TD*%
D18*
%TO.C,D34*%
X242094000Y-74136200D03*
D19*
X242094000Y-81756200D03*
%TD*%
D18*
%TO.C,D33*%
X237331000Y-54292500D03*
D19*
X237331000Y-61912500D03*
%TD*%
D18*
%TO.C,D32*%
X234950000Y-113824000D03*
D19*
X234950000Y-121444000D03*
%TD*%
D18*
%TO.C,D31*%
X227806000Y-93186000D03*
D19*
X227806000Y-100806000D03*
%TD*%
D18*
%TO.C,D30*%
X223044000Y-74136200D03*
D19*
X223044000Y-81756200D03*
%TD*%
D18*
%TO.C,D29*%
X218281000Y-54292500D03*
D19*
X218281000Y-61912500D03*
%TD*%
D18*
%TO.C,D28*%
X208756000Y-93186000D03*
D19*
X208756000Y-100806000D03*
%TD*%
D18*
%TO.C,D27*%
X203994000Y-74136200D03*
D19*
X203994000Y-81756200D03*
%TD*%
D18*
%TO.C,D26*%
X199231000Y-54292500D03*
D19*
X199231000Y-61912500D03*
%TD*%
D18*
%TO.C,D25*%
X206375000Y-113824000D03*
D19*
X206375000Y-121444000D03*
%TD*%
D18*
%TO.C,D24*%
X189706000Y-93186000D03*
D19*
X189706000Y-100806000D03*
%TD*%
D18*
%TO.C,D23*%
X184944000Y-74136200D03*
D19*
X184944000Y-81756200D03*
%TD*%
D18*
%TO.C,D22*%
X180181000Y-54292500D03*
D19*
X180181000Y-61912500D03*
%TD*%
D18*
%TO.C,D21*%
X170656000Y-93186000D03*
D19*
X170656000Y-100806000D03*
%TD*%
D18*
%TO.C,D20*%
X165894000Y-74136200D03*
D19*
X165894000Y-81756200D03*
%TD*%
D18*
%TO.C,D19*%
X161131000Y-54292500D03*
D19*
X161131000Y-61912500D03*
%TD*%
D18*
%TO.C,D18*%
X158750000Y-113824000D03*
D19*
X158750000Y-121444000D03*
%TD*%
D18*
%TO.C,D17*%
X151606000Y-93186000D03*
D19*
X151606000Y-100806000D03*
%TD*%
D18*
%TO.C,D16*%
X146844000Y-74136200D03*
D19*
X146844000Y-81756200D03*
%TD*%
D18*
%TO.C,D15*%
X142081000Y-54292500D03*
D19*
X142081000Y-61912500D03*
%TD*%
D18*
%TO.C,D14*%
X132556000Y-93186000D03*
D19*
X132556000Y-100806000D03*
%TD*%
D18*
%TO.C,D13*%
X127794000Y-74136200D03*
D19*
X127794000Y-81756200D03*
%TD*%
D18*
%TO.C,D12*%
X123031000Y-54292500D03*
D19*
X123031000Y-61912500D03*
%TD*%
D18*
%TO.C,D11*%
X116681000Y-113824000D03*
D19*
X116681000Y-121444000D03*
%TD*%
D18*
%TO.C,D10*%
X113506000Y-93186000D03*
D19*
X113506000Y-100806000D03*
%TD*%
D18*
%TO.C,D9*%
X108744000Y-74136200D03*
D19*
X108744000Y-81756200D03*
%TD*%
D18*
%TO.C,D8*%
X103981000Y-54292500D03*
D19*
X103981000Y-61912500D03*
%TD*%
D18*
%TO.C,D7*%
X94456200Y-93186000D03*
D19*
X94456200Y-100806000D03*
%TD*%
D18*
%TO.C,D6*%
X89550000Y-74136200D03*
D19*
X89550000Y-81756200D03*
%TD*%
D18*
%TO.C,D5*%
X84931200Y-54292500D03*
D19*
X84931200Y-61912500D03*
%TD*%
D18*
%TO.C,D4*%
X71437500Y-113824000D03*
D19*
X71437500Y-121444000D03*
%TD*%
D18*
%TO.C,D3*%
X64770000Y-106362000D03*
D19*
X57150000Y-106362000D03*
%TD*%
D18*
%TO.C,D2*%
X71437500Y-102711000D03*
D19*
X71437500Y-110331000D03*
%TD*%
D18*
%TO.C,D1*%
X74612500Y-102711000D03*
D19*
X74612500Y-110331000D03*
%TD*%
M02*
