%TF.GenerationSoftware,KiCad,Pcbnew,5.1.9*%
%TF.CreationDate,2021-02-13T13:16:34+02:00*%
%TF.ProjectId,arc40,61726334-302e-46b6-9963-61645f706362,rev?*%
%TF.SameCoordinates,Original*%
%TF.FileFunction,Soldermask,Top*%
%TF.FilePolarity,Negative*%
%FSLAX46Y46*%
G04 Gerber Fmt 4.6, Leading zero omitted, Abs format (unit mm)*
G04 Created by KiCad (PCBNEW 5.1.9) date 2021-02-13 13:16:34*
%MOMM*%
%LPD*%
G01*
G04 APERTURE LIST*
%ADD10C,3.987800*%
%ADD11C,1.750000*%
%ADD12C,1.752600*%
%ADD13R,1.752600X1.752600*%
%ADD14C,3.048000*%
%ADD15O,1.600000X1.600000*%
%ADD16R,1.600000X1.600000*%
G04 APERTURE END LIST*
D10*
%TO.C,MX39*%
X271462000Y-59531200D03*
D11*
X266382000Y-59531200D03*
X276542000Y-59531200D03*
%TD*%
D12*
%TO.C,U1*%
X64680000Y-54080000D03*
X49440000Y-82020000D03*
X64680000Y-56620000D03*
X64680000Y-59160000D03*
X64680000Y-61700000D03*
X64680000Y-64240000D03*
X64680000Y-66780000D03*
X64680000Y-69320000D03*
X64680000Y-71860000D03*
X64680000Y-74400000D03*
X64680000Y-76940000D03*
X64680000Y-79480000D03*
X64680000Y-82020000D03*
X49440000Y-79480000D03*
X49440000Y-76940000D03*
X49440000Y-74400000D03*
X49440000Y-71860000D03*
X49440000Y-69320000D03*
X49440000Y-66780000D03*
X49440000Y-64240000D03*
X49440000Y-61700000D03*
X49440000Y-59160000D03*
X49440000Y-56620000D03*
D13*
X49440000Y-54080000D03*
%TD*%
D10*
%TO.C,MX42*%
X273844000Y-116681000D03*
D11*
X268764000Y-116681000D03*
X278924000Y-116681000D03*
%TD*%
D10*
%TO.C,MX41*%
X276225000Y-97631200D03*
D11*
X271145000Y-97631200D03*
X281305000Y-97631200D03*
%TD*%
D10*
%TO.C,MX40*%
X273844000Y-78581200D03*
D11*
X268764000Y-78581200D03*
X278924000Y-78581200D03*
%TD*%
D10*
%TO.C,MX38*%
X257175000Y-97631200D03*
D11*
X252095000Y-97631200D03*
X262255000Y-97631200D03*
%TD*%
D10*
%TO.C,MX37*%
X252412000Y-78581200D03*
D11*
X247332000Y-78581200D03*
X257492000Y-78581200D03*
%TD*%
D10*
%TO.C,MX36*%
X247650000Y-59531200D03*
D11*
X242570000Y-59531200D03*
X252730000Y-59531200D03*
%TD*%
D10*
%TO.C,MX35*%
X238125000Y-97631200D03*
D11*
X233045000Y-97631200D03*
X243205000Y-97631200D03*
%TD*%
D10*
%TO.C,MX34*%
X233362000Y-78581200D03*
D11*
X228282000Y-78581200D03*
X238442000Y-78581200D03*
%TD*%
D10*
%TO.C,MX33*%
X228600000Y-59531200D03*
D11*
X223520000Y-59531200D03*
X233680000Y-59531200D03*
%TD*%
D10*
%TO.C,MX32*%
X226219000Y-116681000D03*
D11*
X221139000Y-116681000D03*
X231299000Y-116681000D03*
%TD*%
D10*
%TO.C,MX31*%
X219075000Y-97631200D03*
D11*
X213995000Y-97631200D03*
X224155000Y-97631200D03*
%TD*%
D10*
%TO.C,MX30*%
X214312000Y-78581200D03*
D11*
X209232000Y-78581200D03*
X219392000Y-78581200D03*
%TD*%
D10*
%TO.C,MX29*%
X209550000Y-59531200D03*
D11*
X204470000Y-59531200D03*
X214630000Y-59531200D03*
%TD*%
D10*
%TO.C,MX28*%
X200025000Y-97631200D03*
D11*
X194945000Y-97631200D03*
X205105000Y-97631200D03*
%TD*%
D10*
%TO.C,MX27*%
X195262000Y-78581200D03*
D11*
X190182000Y-78581200D03*
X200342000Y-78581200D03*
%TD*%
D10*
%TO.C,MX26*%
X190500000Y-59531200D03*
D11*
X185420000Y-59531200D03*
X195580000Y-59531200D03*
%TD*%
D10*
%TO.C,MX25*%
X188119000Y-116681000D03*
D11*
X183039000Y-116681000D03*
X193199000Y-116681000D03*
D14*
X176212750Y-123666000D03*
X200025250Y-123666000D03*
D10*
X176212750Y-108426000D03*
X200025250Y-108426000D03*
%TD*%
%TO.C,MX24*%
X180975000Y-97631200D03*
D11*
X175895000Y-97631200D03*
X186055000Y-97631200D03*
%TD*%
D10*
%TO.C,MX23*%
X176212000Y-78581200D03*
D11*
X171132000Y-78581200D03*
X181292000Y-78581200D03*
%TD*%
D10*
%TO.C,MX22*%
X171450000Y-59531200D03*
D11*
X166370000Y-59531200D03*
X176530000Y-59531200D03*
%TD*%
D10*
%TO.C,MX21*%
X161925000Y-97631200D03*
D11*
X156845000Y-97631200D03*
X167005000Y-97631200D03*
%TD*%
D10*
%TO.C,MX20*%
X157162000Y-78581200D03*
D11*
X152082000Y-78581200D03*
X162242000Y-78581200D03*
%TD*%
D10*
%TO.C,MX19*%
X152400000Y-59531200D03*
D11*
X147320000Y-59531200D03*
X157480000Y-59531200D03*
%TD*%
D10*
%TO.C,MX18*%
X140494000Y-116681000D03*
D11*
X135414000Y-116681000D03*
X145574000Y-116681000D03*
D14*
X128587750Y-123666000D03*
X152400250Y-123666000D03*
D10*
X128587750Y-108426000D03*
X152400250Y-108426000D03*
%TD*%
%TO.C,MX17*%
X142875000Y-97631200D03*
D11*
X137795000Y-97631200D03*
X147955000Y-97631200D03*
%TD*%
D10*
%TO.C,MX16*%
X138112000Y-78581200D03*
D11*
X133032000Y-78581200D03*
X143192000Y-78581200D03*
%TD*%
D10*
%TO.C,MX15*%
X133350000Y-59531200D03*
D11*
X128270000Y-59531200D03*
X138430000Y-59531200D03*
%TD*%
D10*
%TO.C,MX14*%
X123825000Y-97631200D03*
D11*
X118745000Y-97631200D03*
X128905000Y-97631200D03*
%TD*%
D10*
%TO.C,MX13*%
X119062000Y-78581200D03*
D11*
X113982000Y-78581200D03*
X124142000Y-78581200D03*
%TD*%
D10*
%TO.C,MX12*%
X114300000Y-59531200D03*
D11*
X109220000Y-59531200D03*
X119380000Y-59531200D03*
%TD*%
D10*
%TO.C,MX11*%
X107156000Y-116681000D03*
D11*
X102076000Y-116681000D03*
X112236000Y-116681000D03*
%TD*%
D10*
%TO.C,MX10*%
X104775000Y-97631200D03*
D11*
X99695000Y-97631200D03*
X109855000Y-97631200D03*
%TD*%
D10*
%TO.C,MX9*%
X100012000Y-78581200D03*
D11*
X94932000Y-78581200D03*
X105092000Y-78581200D03*
%TD*%
D10*
%TO.C,MX8*%
X95250000Y-59531200D03*
D11*
X90170000Y-59531200D03*
X100330000Y-59531200D03*
%TD*%
D10*
%TO.C,MX7*%
X85725000Y-97631200D03*
D11*
X80645000Y-97631200D03*
X90805000Y-97631200D03*
%TD*%
D10*
%TO.C,MX6*%
X80962500Y-78581200D03*
D11*
X75882500Y-78581200D03*
X86042500Y-78581200D03*
%TD*%
D10*
%TO.C,MX5*%
X76200000Y-59531200D03*
D11*
X71120000Y-59531200D03*
X81280000Y-59531200D03*
%TD*%
D10*
%TO.C,MX4*%
X59531200Y-116681000D03*
D11*
X54451200Y-116681000D03*
X64611200Y-116681000D03*
%TD*%
D10*
%TO.C,MX3*%
X61912500Y-97631200D03*
D11*
X56832500Y-97631200D03*
X66992500Y-97631200D03*
%TD*%
D10*
%TO.C,MX2*%
X59531200Y-78581200D03*
D11*
X54451200Y-78581200D03*
X64611200Y-78581200D03*
%TD*%
D10*
%TO.C,MX1*%
X57150000Y-59531200D03*
D11*
X52070000Y-59531200D03*
X62230000Y-59531200D03*
%TD*%
D15*
%TO.C,D42*%
X283369000Y-113824000D03*
D16*
X283369000Y-121444000D03*
%TD*%
D15*
%TO.C,D41*%
X284162000Y-93186000D03*
D16*
X284162000Y-100806000D03*
%TD*%
D15*
%TO.C,D40*%
X281781000Y-74136200D03*
D16*
X281781000Y-81756200D03*
%TD*%
D15*
%TO.C,D39*%
X280194000Y-54292500D03*
D16*
X280194000Y-61912500D03*
%TD*%
D15*
%TO.C,D38*%
X265906000Y-93186000D03*
D16*
X265906000Y-100806000D03*
%TD*%
D15*
%TO.C,D37*%
X261144000Y-74136200D03*
D16*
X261144000Y-81756200D03*
%TD*%
D15*
%TO.C,D36*%
X256381000Y-54292500D03*
D16*
X256381000Y-61912500D03*
%TD*%
D15*
%TO.C,D35*%
X246856000Y-93186000D03*
D16*
X246856000Y-100806000D03*
%TD*%
D15*
%TO.C,D34*%
X242094000Y-74136200D03*
D16*
X242094000Y-81756200D03*
%TD*%
D15*
%TO.C,D33*%
X237331000Y-54292500D03*
D16*
X237331000Y-61912500D03*
%TD*%
D15*
%TO.C,D32*%
X234950000Y-113824000D03*
D16*
X234950000Y-121444000D03*
%TD*%
D15*
%TO.C,D31*%
X227806000Y-93186000D03*
D16*
X227806000Y-100806000D03*
%TD*%
D15*
%TO.C,D30*%
X223044000Y-74136200D03*
D16*
X223044000Y-81756200D03*
%TD*%
D15*
%TO.C,D29*%
X218281000Y-54292500D03*
D16*
X218281000Y-61912500D03*
%TD*%
D15*
%TO.C,D28*%
X208756000Y-93186000D03*
D16*
X208756000Y-100806000D03*
%TD*%
D15*
%TO.C,D27*%
X203994000Y-74136200D03*
D16*
X203994000Y-81756200D03*
%TD*%
D15*
%TO.C,D26*%
X199231000Y-54292500D03*
D16*
X199231000Y-61912500D03*
%TD*%
D15*
%TO.C,D25*%
X206375000Y-113824000D03*
D16*
X206375000Y-121444000D03*
%TD*%
D15*
%TO.C,D24*%
X189706000Y-93186000D03*
D16*
X189706000Y-100806000D03*
%TD*%
D15*
%TO.C,D23*%
X184944000Y-74136200D03*
D16*
X184944000Y-81756200D03*
%TD*%
D15*
%TO.C,D22*%
X180181000Y-54292500D03*
D16*
X180181000Y-61912500D03*
%TD*%
D15*
%TO.C,D21*%
X170656000Y-93186000D03*
D16*
X170656000Y-100806000D03*
%TD*%
D15*
%TO.C,D20*%
X165894000Y-74136200D03*
D16*
X165894000Y-81756200D03*
%TD*%
D15*
%TO.C,D19*%
X161131000Y-54292500D03*
D16*
X161131000Y-61912500D03*
%TD*%
D15*
%TO.C,D18*%
X158750000Y-113824000D03*
D16*
X158750000Y-121444000D03*
%TD*%
D15*
%TO.C,D17*%
X151606000Y-93186000D03*
D16*
X151606000Y-100806000D03*
%TD*%
D15*
%TO.C,D16*%
X146844000Y-74136200D03*
D16*
X146844000Y-81756200D03*
%TD*%
D15*
%TO.C,D15*%
X142081000Y-54292500D03*
D16*
X142081000Y-61912500D03*
%TD*%
D15*
%TO.C,D14*%
X132556000Y-93186000D03*
D16*
X132556000Y-100806000D03*
%TD*%
D15*
%TO.C,D13*%
X127794000Y-74136200D03*
D16*
X127794000Y-81756200D03*
%TD*%
D15*
%TO.C,D12*%
X123031000Y-54292500D03*
D16*
X123031000Y-61912500D03*
%TD*%
D15*
%TO.C,D11*%
X116681000Y-113824000D03*
D16*
X116681000Y-121444000D03*
%TD*%
D15*
%TO.C,D10*%
X113506000Y-93186000D03*
D16*
X113506000Y-100806000D03*
%TD*%
D15*
%TO.C,D9*%
X108744000Y-74136200D03*
D16*
X108744000Y-81756200D03*
%TD*%
D15*
%TO.C,D8*%
X103981000Y-54292500D03*
D16*
X103981000Y-61912500D03*
%TD*%
D15*
%TO.C,D7*%
X94456200Y-93186000D03*
D16*
X94456200Y-100806000D03*
%TD*%
D15*
%TO.C,D6*%
X89550000Y-74136200D03*
D16*
X89550000Y-81756200D03*
%TD*%
D15*
%TO.C,D5*%
X84931200Y-54292500D03*
D16*
X84931200Y-61912500D03*
%TD*%
D15*
%TO.C,D4*%
X71437500Y-113824000D03*
D16*
X71437500Y-121444000D03*
%TD*%
D15*
%TO.C,D3*%
X64770000Y-106362000D03*
D16*
X57150000Y-106362000D03*
%TD*%
D15*
%TO.C,D2*%
X71437500Y-102711000D03*
D16*
X71437500Y-110331000D03*
%TD*%
D15*
%TO.C,D1*%
X74612500Y-102711000D03*
D16*
X74612500Y-110331000D03*
%TD*%
M02*
