M48
; DRILL file {KiCad 5.1.9} date Sat Feb 13 13:16:35 2021
; FORMAT={-:-/ absolute / inch / decimal}
; #@! TF.CreationDate,2021-02-13T13:16:35+02:00
; #@! TF.GenerationSoftware,Kicad,Pcbnew,5.1.9
; #@! TF.FileFunction,NonPlated,1,2,NPTH
FMAT,2
INCH
T1C0.0689
T2C0.1200
T3C0.1570
%
G90
G05
T1
X2.05Y-2.3437
X2.1437Y-3.0937
X2.1437Y-4.5937
X2.2375Y-3.8437
X2.45Y-2.3437
X2.5437Y-3.0937
X2.5437Y-4.5937
X2.6375Y-3.8437
X2.8Y-2.3437
X2.9875Y-3.0937
X3.175Y-3.8437
X3.2Y-2.3437
X3.3875Y-3.0937
X3.55Y-2.3437
X3.575Y-3.8437
X3.7375Y-3.0937
X3.925Y-3.8437
X3.95Y-2.3437
X4.0187Y-4.5937
X4.1375Y-3.0937
X4.3Y-2.3437
X4.325Y-3.8437
X4.4187Y-4.5937
X4.4875Y-3.0937
X4.675Y-3.8437
X4.7Y-2.3437
X4.8875Y-3.0937
X5.05Y-2.3437
X5.075Y-3.8437
X5.2375Y-3.0937
X5.3313Y-4.5937
X5.425Y-3.8437
X5.45Y-2.3437
X5.6375Y-3.0937
X5.7313Y-4.5937
X5.8Y-2.3437
X5.825Y-3.8437
X5.9875Y-3.0937
X6.175Y-3.8437
X6.2Y-2.3437
X6.3875Y-3.0937
X6.55Y-2.3437
X6.575Y-3.8437
X6.7375Y-3.0937
X6.925Y-3.8437
X6.95Y-2.3437
X7.1375Y-3.0937
X7.2063Y-4.5937
X7.3Y-2.3437
X7.325Y-3.8437
X7.4875Y-3.0937
X7.6063Y-4.5937
X7.675Y-3.8437
X7.7Y-2.3437
X7.8875Y-3.0937
X8.05Y-2.3437
X8.075Y-3.8437
X8.2375Y-3.0937
X8.425Y-3.8437
X8.45Y-2.3437
X8.6375Y-3.0937
X8.7063Y-4.5937
X8.8Y-2.3437
X8.825Y-3.8437
X8.9875Y-3.0937
X9.1063Y-4.5937
X9.175Y-3.8437
X9.2Y-2.3437
X9.3875Y-3.0937
X9.55Y-2.3437
X9.575Y-3.8437
X9.7375Y-3.0937
X9.925Y-3.8437
X9.95Y-2.3437
X10.1375Y-3.0937
X10.325Y-3.8437
X10.4875Y-2.3437
X10.5813Y-3.0937
X10.5813Y-4.5937
X10.675Y-3.8437
X10.8875Y-2.3437
X10.9813Y-3.0937
X10.9813Y-4.5937
X11.075Y-3.8437
T2
X5.0625Y-4.8687
X6.0Y-4.8687
X6.9375Y-4.8687
X7.875Y-4.8687
T3
X2.25Y-2.3437
X2.3437Y-3.0937
X2.3437Y-4.5937
X2.4375Y-3.8437
X3.0Y-2.3437
X3.1875Y-3.0937
X3.375Y-3.8437
X3.75Y-2.3437
X3.9375Y-3.0937
X4.125Y-3.8437
X4.2187Y-4.5937
X4.5Y-2.3437
X4.6875Y-3.0937
X4.875Y-3.8437
X5.0625Y-4.2687
X5.25Y-2.3437
X5.4375Y-3.0937
X5.5313Y-4.5937
X5.625Y-3.8437
X6.0Y-2.3437
X6.0Y-4.2687
X6.1875Y-3.0937
X6.375Y-3.8437
X6.75Y-2.3437
X6.9375Y-3.0937
X6.9375Y-4.2687
X7.125Y-3.8437
X7.4063Y-4.5937
X7.5Y-2.3437
X7.6875Y-3.0937
X7.875Y-3.8437
X7.875Y-4.2687
X8.25Y-2.3437
X8.4375Y-3.0937
X8.625Y-3.8437
X8.9063Y-4.5937
X9.0Y-2.3437
X9.1875Y-3.0937
X9.375Y-3.8437
X9.75Y-2.3437
X9.9375Y-3.0937
X10.125Y-3.8437
X10.6875Y-2.3437
X10.7813Y-3.0937
X10.7813Y-4.5937
X10.875Y-3.8437
T0
M30
