M48
; DRILL file {KiCad 5.1.9} date Wed Feb  3 17:10:19 2021
; FORMAT={-:-/ absolute / inch / decimal}
; #@! TF.CreationDate,2021-02-03T17:10:19+02:00
; #@! TF.GenerationSoftware,Kicad,Pcbnew,5.1.9
; #@! TF.FileFunction,Plated,1,2,PTH
FMAT,2
INCH
T1C0.0315
T2C0.0430
T3C0.0579
%
G90
G05
T1
X2.25Y-4.1875
X2.55Y-4.1875
X2.8125Y-4.0437
X2.8125Y-4.3437
X2.8125Y-4.4813
X2.8125Y-4.7813
X2.9375Y-4.0437
X2.9375Y-4.3437
X3.3437Y-2.1375
X3.3437Y-2.4375
X3.5256Y-2.9187
X3.5256Y-3.2187
X3.7187Y-3.6687
X3.7187Y-3.9687
X4.0937Y-2.1375
X4.0937Y-2.4375
X4.2813Y-2.9187
X4.2813Y-3.2187
X4.4687Y-3.6687
X4.4687Y-3.9687
X4.5937Y-4.4813
X4.5937Y-4.7813
X4.8437Y-2.1375
X4.8437Y-2.4375
X5.0313Y-2.9187
X5.0313Y-3.2187
X5.2187Y-3.6687
X5.2187Y-3.9687
X5.5937Y-2.1375
X5.5937Y-2.4375
X5.7813Y-2.9187
X5.7813Y-3.2187
X5.9687Y-3.6687
X5.9687Y-3.9687
X6.25Y-4.4813
X6.25Y-4.7813
X6.3437Y-2.1375
X6.3437Y-2.4375
X6.5313Y-2.9187
X6.5313Y-3.2187
X6.7187Y-3.6687
X6.7187Y-3.9687
X7.0937Y-2.1375
X7.0937Y-2.4375
X7.2813Y-2.9187
X7.2813Y-3.2187
X7.4687Y-3.6687
X7.4687Y-3.9687
X7.8437Y-2.1375
X7.8437Y-2.4375
X8.0313Y-2.9187
X8.0313Y-3.2187
X8.125Y-4.4813
X8.125Y-4.7813
X8.2187Y-3.6687
X8.2187Y-3.9687
X8.5937Y-2.1375
X8.5937Y-2.4375
X8.7813Y-2.9187
X8.7813Y-3.2187
X8.9687Y-3.6687
X8.9687Y-3.9687
X9.25Y-4.4813
X9.25Y-4.7813
X9.3437Y-2.1375
X9.3437Y-2.4375
X9.5313Y-2.9187
X9.5313Y-3.2187
X9.7187Y-3.6687
X9.7187Y-3.9687
X10.0937Y-2.1375
X10.0937Y-2.4375
X10.2813Y-2.9187
X10.2813Y-3.2187
X10.4687Y-3.6687
X10.4687Y-3.9687
X11.0313Y-2.1375
X11.0313Y-2.4375
X11.0937Y-2.9187
X11.0937Y-3.2187
X11.1563Y-4.4813
X11.1563Y-4.7813
X11.1875Y-3.6687
X11.1875Y-3.9687
T2
X1.9465Y-2.1291
X1.9465Y-2.2291
X1.9465Y-2.3291
X1.9465Y-2.4291
X1.9465Y-2.5291
X1.9465Y-2.6291
X1.9465Y-2.7291
X1.9465Y-2.8291
X1.9465Y-2.9291
X1.9465Y-3.0291
X1.9465Y-3.1291
X1.9465Y-3.2291
X2.5465Y-2.1291
X2.5465Y-2.2291
X2.5465Y-2.3291
X2.5465Y-2.4291
X2.5465Y-2.5291
X2.5465Y-2.6291
X2.5465Y-2.7291
X2.5465Y-2.8291
X2.5465Y-2.9291
X2.5465Y-3.0291
X2.5465Y-3.1291
X2.5465Y-3.2291
T3
X2.1Y-2.2437
X2.1937Y-2.9937
X2.1937Y-4.4937
X2.2875Y-3.7437
X2.35Y-2.1437
X2.4437Y-2.8937
X2.4437Y-4.3937
X2.5375Y-3.6437
X2.85Y-2.2437
X3.0375Y-2.9937
X3.1Y-2.1437
X3.225Y-3.7437
X3.2875Y-2.8937
X3.475Y-3.6437
X3.6Y-2.2437
X3.7875Y-2.9937
X3.85Y-2.1437
X3.975Y-3.7437
X4.0375Y-2.8937
X4.0687Y-4.4937
X4.225Y-3.6437
X4.3187Y-4.3937
X4.35Y-2.2437
X4.5375Y-2.9937
X4.6Y-2.1437
X4.725Y-3.7437
X4.7875Y-2.8937
X4.975Y-3.6437
X5.1Y-2.2437
X5.2875Y-2.9937
X5.35Y-2.1437
X5.3813Y-4.4937
X5.475Y-3.7437
X5.5375Y-2.8937
X5.6313Y-4.3937
X5.725Y-3.6437
X5.85Y-2.2437
X6.0375Y-2.9937
X6.1Y-2.1437
X6.225Y-3.7437
X6.2875Y-2.8937
X6.475Y-3.6437
X6.6Y-2.2437
X6.7875Y-2.9937
X6.85Y-2.1437
X6.975Y-3.7437
X7.0375Y-2.8937
X7.225Y-3.6437
X7.2563Y-4.4937
X7.35Y-2.2437
X7.5063Y-4.3937
X7.5375Y-2.9937
X7.6Y-2.1437
X7.725Y-3.7437
X7.7875Y-2.8937
X7.975Y-3.6437
X8.1Y-2.2437
X8.2875Y-2.9937
X8.35Y-2.1437
X8.475Y-3.7437
X8.5375Y-2.8937
X8.725Y-3.6437
X8.7563Y-4.4937
X8.85Y-2.2437
X9.0063Y-4.3937
X9.0375Y-2.9937
X9.1Y-2.1437
X9.225Y-3.7437
X9.2875Y-2.8937
X9.475Y-3.6437
X9.6Y-2.2437
X9.7875Y-2.9937
X9.85Y-2.1437
X9.975Y-3.7437
X10.0375Y-2.8937
X10.225Y-3.6437
X10.5375Y-2.2437
X10.6313Y-2.9937
X10.6313Y-4.4937
X10.725Y-3.7437
X10.7875Y-2.1437
X10.8813Y-2.8937
X10.8813Y-4.3937
X10.975Y-3.6437
T0
M30
